TAS Beginner-Regular.ufo
<glyph name="exclam" format="2">
	<advance width="197"/>
	<unicode hex="0021"/>
	<outline>
		<contour>
			<point x="210" y="626" type="line" smooth="yes"/>
			<point x="214" y="641"/>
			<point x="204" y="649"/>
			<point x="192" y="650" type="curve" smooth="yes"/>
			<point x="179" y="651"/>
			<point x="163" y="645"/>
			<point x="160" y="633" type="curve" smooth="yes"/>
			<point x="53" y="203" type="line" smooth="yes"/>
			<point x="49" y="187"/>
			<point x="60" y="177"/>
			<point x="72" y="175" type="curve" smooth="yes"/>
			<point x="84" y="173"/>
			<point x="99" y="181"/>
			<point x="104" y="200" type="curve" smooth="yes"/>
		</contour>
		<contour>
			<point x="30" y="-24" type="curve" smooth="yes"/>
			<point x="48" y="-24"/>
			<point x="64" y="-8"/>
			<point x="64" y="9" type="curve" smooth="yes"/>
			<point x="64" y="26"/>
			<point x="48" y="41"/>
			<point x="30" y="41" type="curve" smooth="yes"/>
			<point x="12" y="41"/>
			<point x="-1" y="25"/>
			<point x="-1" y="9" type="curve" smooth="yes"/>
			<point x="-1" y="-7"/>
			<point x="12" y="-24"/>
		</contour>
	</outline>
</glyph>
<glyph name="quotedbl" format="2">
  <advance width="329"/>
  <unicode hex="0022"/>
  <outline>
    <contour>
      <point x="142" y="452" type="curve" smooth="yes"/>
      <point x="154" y="452"/>
      <point x="167" y="458"/>
      <point x="171" y="474" type="curve" smooth="yes"/>
      <point x="208" y="619" type="line" smooth="yes"/>
      <point x="213" y="638"/>
      <point x="199" y="650"/>
      <point x="186" y="650" type="curve" smooth="yes"/>
      <point x="174" y="650"/>
      <point x="161" y="643"/>
      <point x="157" y="626" type="curve" smooth="yes"/>
      <point x="120" y="482" type="line" smooth="yes"/>
      <point x="115" y="464"/>
      <point x="129" y="452"/>
    </contour>
    <contour>
      <point x="282" y="452" type="curve" smooth="yes"/>
      <point x="294" y="452"/>
      <point x="307" y="458"/>
      <point x="311" y="474" type="curve" smooth="yes"/>
      <point x="348" y="619" type="line" smooth="yes"/>
      <point x="353" y="638"/>
      <point x="339" y="650"/>
      <point x="326" y="650" type="curve" smooth="yes"/>
      <point x="314" y="650"/>
      <point x="301" y="643"/>
      <point x="297" y="626" type="curve" smooth="yes"/>
      <point x="260" y="482" type="line" smooth="yes"/>
      <point x="255" y="464"/>
      <point x="269" y="452"/>
    </contour>
  </outline>
</glyph>
<glyph name="numbersign" format="2">
	<advance width="797"/>
	<unicode hex="0023"/>
	<outline>
		<contour>
			<point x="353" y="542" type="line" smooth="yes"/>
			<point x="357" y="557"/>
			<point x="347" y="567"/>
			<point x="334" y="568" type="curve" smooth="yes"/>
			<point x="321" y="569"/>
			<point x="306" y="562"/>
			<point x="302" y="545" type="curve" smooth="yes"/>
			<point x="173" y="29" type="line" smooth="yes"/>
			<point x="169" y="11"/>
			<point x="178" y="0"/>
			<point x="190" y="0" type="curve" smooth="yes"/>
			<point x="203" y="-2"/>
			<point x="219" y="6"/>
			<point x="224" y="25" type="curve" smooth="yes"/>
		</contour>
		<contour>
			<point x="634" y="147" type="line" smooth="yes"/>
			<point x="651" y="147"/>
			<point x="660" y="159"/>
			<point x="660" y="170" type="curve" smooth="yes"/>
			<point x="660" y="181"/>
			<point x="652" y="192"/>
			<point x="634" y="192" type="curve" smooth="yes"/>
			<point x="89" y="192" type="line" smooth="yes"/>
			<point x="71" y="192"/>
			<point x="63" y="181"/>
			<point x="63" y="170" type="curve" smooth="yes"/>
			<point x="63" y="159"/>
			<point x="72" y="147"/>
			<point x="89" y="147" type="curve" smooth="yes"/>
		</contour>
		<contour>
			<point x="609" y="542" type="line" smooth="yes"/>
			<point x="613" y="558"/>
			<point x="603" y="566"/>
			<point x="591" y="568" type="curve" smooth="yes"/>
			<point x="578" y="569"/>
			<point x="562" y="562"/>
			<point x="558" y="545" type="curve" smooth="yes"/>
			<point x="430" y="29" type="line" smooth="yes"/>
			<point x="425" y="10"/>
			<point x="436" y="0"/>
			<point x="449" y="0" type="curve" smooth="yes"/>
			<point x="462" y="0"/>
			<point x="476" y="7"/>
			<point x="480" y="25" type="curve" smooth="yes"/>
		</contour>
		<contour>
			<point x="693" y="384" type="line" smooth="yes"/>
			<point x="711" y="384"/>
			<point x="720" y="395"/>
			<point x="720" y="406" type="curve" smooth="yes"/>
			<point x="720" y="417"/>
			<point x="711" y="429"/>
			<point x="693" y="429" type="curve" smooth="yes"/>
			<point x="149" y="429" type="line" smooth="yes"/>
			<point x="131" y="429"/>
			<point x="122" y="417"/>
			<point x="122" y="406" type="curve" smooth="yes"/>
			<point x="122" y="395"/>
			<point x="131" y="384"/>
			<point x="149" y="384" type="curve" smooth="yes"/>
		</contour>
	</outline>
</glyph>
<glyph name="dollar" format="2">
  <advance width="532"/>
  <unicode hex="0024"/>
  <outline>
    <contour>
      <point x="256" y="0" type="curve" smooth="yes"/>
      <point x="349" y="0"/>
      <point x="412" y="63"/>
      <point x="438" y="164" type="curve" smooth="yes"/>
      <point x="465" y="278"/>
      <point x="426" y="338"/>
      <point x="304" y="370" type="curve" smooth="yes"/>
      <point x="232" y="389"/>
      <point x="212" y="424"/>
      <point x="225" y="473" type="curve" smooth="yes"/>
      <point x="243" y="546"/>
      <point x="300" y="591"/>
      <point x="369" y="591" type="curve" smooth="yes"/>
      <point x="411" y="591"/>
      <point x="433" y="560"/>
      <point x="454" y="496" type="curve" smooth="yes"/>
      <point x="458" y="483"/>
      <point x="472" y="479"/>
      <point x="484" y="481" type="curve" smooth="yes"/>
      <point x="500" y="484"/>
      <point x="506" y="499"/>
      <point x="503" y="509" type="curve" smooth="yes"/>
      <point x="479" y="594"/>
      <point x="442" y="637"/>
      <point x="374" y="637" type="curve" smooth="yes"/>
      <point x="279" y="637"/>
      <point x="199" y="579"/>
      <point x="176" y="484" type="curve" smooth="yes"/>
      <point x="157" y="403"/>
      <point x="190" y="348"/>
      <point x="295" y="320" type="curve" smooth="yes"/>
      <point x="380" y="297"/>
      <point x="407" y="254"/>
      <point x="388" y="172" type="curve" smooth="yes"/>
      <point x="370" y="94"/>
      <point x="327" y="46"/>
      <point x="259" y="46" type="curve" smooth="yes"/>
      <point x="194" y="46"/>
      <point x="140" y="93"/>
      <point x="132" y="168" type="curve" smooth="yes"/>
      <point x="131" y="182"/>
      <point x="121" y="188"/>
      <point x="105" y="187" type="curve" smooth="yes"/>
      <point x="89" y="186"/>
      <point x="81" y="178"/>
      <point x="82" y="163" type="curve" smooth="yes"/>
      <point x="93" y="62"/>
      <point x="166" y="0"/>
    </contour>
    <contour>
      <point x="202" y="-96" type="curve" smooth="yes"/>
      <point x="224" y="-96"/>
      <point x="230" y="-83"/>
      <point x="232" y="-73" type="curve" smooth="yes"/>
      <point x="414" y="667" type="line" smooth="yes"/>
      <point x="418" y="685"/>
      <point x="413" y="700"/>
      <point x="396" y="700" type="curve" smooth="yes"/>
      <point x="377" y="700"/>
      <point x="369" y="691"/>
      <point x="365" y="675" type="curve" smooth="yes"/>
      <point x="181" y="-67" type="line" smooth="yes"/>
      <point x="177" y="-82"/>
      <point x="184" y="-96"/>
    </contour>
  </outline>
</glyph>
<glyph name="percent" format="2">
	<advance width="704"/>
	<unicode hex="0025"/>
	<outline>
		<contour>
			<point x="512" y="616" type="line" smooth="yes"/>
			<point x="521" y="637"/>
			<point x="506" y="650"/>
			<point x="491" y="650" type="curve" smooth="yes"/>
			<point x="480" y="650"/>
			<point x="469" y="644"/>
			<point x="462" y="627" type="curve" smooth="yes"/>
			<point x="205" y="31" type="line" smooth="yes"/>
			<point x="197" y="12"/>
			<point x="211" y="0"/>
			<point x="227" y="0" type="curve" smooth="yes"/>
			<point x="238" y="0"/>
			<point x="249" y="6"/>
			<point x="255" y="20" type="curve" smooth="yes"/>
		</contour>
		<contour>
			<point x="272" y="650" type="curve" smooth="yes"/>
			<point x="182" y="650"/>
			<point x="143" y="589"/>
			<point x="121" y="503" type="curve" smooth="yes"/>
			<point x="102" y="428"/>
			<point x="111" y="343"/>
			<point x="184" y="343" type="curve" smooth="yes"/>
			<point x="270" y="343"/>
			<point x="326" y="437"/>
			<point x="345" y="513" type="curve" smooth="yes"/>
			<point x="357" y="562"/>
			<point x="355" y="650"/>
		</contour>
		<contour>
			<point x="261" y="604" type="curve" smooth="yes"/>
			<point x="315" y="604"/>
			<point x="298" y="535"/>
			<point x="296" y="525" type="curve" smooth="yes"/>
			<point x="283" y="473"/>
			<point x="235" y="389"/>
			<point x="196" y="389" type="curve" smooth="yes"/>
			<point x="140" y="389"/>
			<point x="163" y="457"/>
			<point x="178" y="516" type="curve" smooth="yes"/>
			<point x="185" y="544"/>
			<point x="214" y="604"/>
		</contour>
		<contour>
			<point x="539" y="307" type="curve" smooth="yes"/>
			<point x="449" y="307"/>
			<point x="410" y="246"/>
			<point x="388" y="160" type="curve" smooth="yes"/>
			<point x="369" y="85"/>
			<point x="378" y="0"/>
			<point x="451" y="0" type="curve" smooth="yes"/>
			<point x="537" y="0"/>
			<point x="593" y="94"/>
			<point x="612" y="170" type="curve" smooth="yes"/>
			<point x="624" y="219"/>
			<point x="622" y="307"/>
		</contour>
		<contour>
			<point x="528" y="261" type="curve" smooth="yes"/>
			<point x="582" y="261"/>
			<point x="565" y="192"/>
			<point x="563" y="182" type="curve" smooth="yes"/>
			<point x="550" y="130"/>
			<point x="502" y="46"/>
			<point x="463" y="46" type="curve" smooth="yes"/>
			<point x="407" y="46"/>
			<point x="430" y="114"/>
			<point x="445" y="173" type="curve" smooth="yes"/>
			<point x="452" y="201"/>
			<point x="481" y="261"/>
		</contour>
	</outline>
</glyph>
<glyph name="ampersand" format="2">
	<advance width="551"/>
	<unicode hex="0026"/>
	<outline>
		<contour>
			<point x="395" y="14" type="line" smooth="yes"/>
			<point x="402" y="4"/>
			<point x="420" y="-7"/>
			<point x="435" y="4" type="curve" smooth="yes"/>
			<point x="448" y="14"/>
			<point x="445" y="29"/>
			<point x="437" y="41" type="curve" smooth="yes"/>
			<point x="247" y="317" type="line"/>
			<point x="178" y="324" type="line"/>
			<point x="117" y="279"/>
			<point x="76" y="227"/>
			<point x="67" y="178" type="curve" smooth="yes"/>
			<point x="53" y="103"/>
			<point x="107" y="-4"/>
			<point x="227" y="-4" type="curve" smooth="yes"/>
			<point x="317" y="-4"/>
			<point x="356" y="56"/>
			<point x="424" y="169" type="curve"/>
			<point x="432" y="181"/>
			<point x="428" y="195"/>
			<point x="416" y="201" type="curve" smooth="yes"/>
			<point x="404" y="208"/>
			<point x="388" y="203"/>
			<point x="379" y="190" type="curve"/>
			<point x="318" y="96"/>
			<point x="296" y="46"/>
			<point x="227" y="46" type="curve" smooth="yes"/>
			<point x="153" y="46"/>
			<point x="104" y="103"/>
			<point x="115" y="164" type="curve" smooth="yes"/>
			<point x="123" y="205"/>
			<point x="158" y="249"/>
			<point x="209" y="285" type="curve"/>
		</contour>
		<contour>
			<point x="231" y="335" type="line"/>
			<point x="212" y="363"/>
			<point x="167" y="424"/>
			<point x="167" y="455" type="curve" smooth="yes"/>
			<point x="167" y="487"/>
			<point x="213" y="518"/>
			<point x="270" y="518" type="curve" smooth="yes"/>
			<point x="314" y="518"/>
			<point x="331" y="500"/>
			<point x="335" y="486" type="curve" smooth="yes"/>
			<point x="344" y="449"/>
			<point x="272" y="383"/>
			<point x="171" y="319" type="curve"/>
			<point x="247" y="309" type="line"/>
			<point x="334" y="371"/>
			<point x="401" y="432"/>
			<point x="381" y="500" type="curve" smooth="yes"/>
			<point x="368" y="547"/>
			<point x="323" y="568"/>
			<point x="270" y="568" type="curve" smooth="yes"/>
			<point x="182" y="568"/>
			<point x="117" y="510"/>
			<point x="117" y="453" type="curve" smooth="yes"/>
			<point x="117" y="403"/>
			<point x="166" y="342"/>
			<point x="188" y="309" type="curve"/>
		</contour>
	</outline>
</glyph>
<glyph name="quotesingle" format="2">
  <advance width="189"/>
  <unicode hex="0027"/>
  <outline>
    <contour>
      <point x="142" y="452" type="curve" smooth="yes"/>
      <point x="154" y="452"/>
      <point x="167" y="458"/>
      <point x="171" y="474" type="curve" smooth="yes"/>
      <point x="208" y="619" type="line" smooth="yes"/>
      <point x="213" y="638"/>
      <point x="199" y="650"/>
      <point x="186" y="650" type="curve" smooth="yes"/>
      <point x="174" y="650"/>
      <point x="161" y="643"/>
      <point x="157" y="626" type="curve" smooth="yes"/>
      <point x="120" y="482" type="line" smooth="yes"/>
      <point x="115" y="464"/>
      <point x="129" y="452"/>
    </contour>
  </outline>
</glyph>
<glyph name="parenleft" format="2">
  <advance width="358"/>
  <unicode hex="0028"/>
  <outline>
    <contour>
      <point x="162" y="-198" type="curve" smooth="yes"/>
      <point x="174" y="-193"/>
      <point x="181" y="-179"/>
      <point x="171" y="-161" type="curve" smooth="yes"/>
      <point x="133" y="-89"/>
      <point x="115" y="-9"/>
      <point x="115" y="79" type="curve" smooth="yes"/>
      <point x="115" y="272"/>
      <point x="222" y="481"/>
      <point x="363" y="607" type="curve" smooth="yes"/>
      <point x="377" y="619"/>
      <point x="380" y="633"/>
      <point x="371" y="643" type="curve" smooth="yes"/>
      <point x="363" y="652"/>
      <point x="347" y="651"/>
      <point x="332" y="638" type="curve" smooth="yes"/>
      <point x="181" y="508"/>
      <point x="65" y="293"/>
      <point x="65" y="79" type="curve" smooth="yes"/>
      <point x="65" y="-9"/>
      <point x="85" y="-97"/>
      <point x="130" y="-179" type="curve" smooth="yes"/>
      <point x="139" y="-196"/>
      <point x="150" y="-203"/>
    </contour>
  </outline>
</glyph>
<glyph name="parenright" format="2">
	<advance width="358"/>
	<unicode hex="0029"/>
	<outline>
		<contour>
			<point x="161" y="648" type="curve" smooth="yes"/>
			<point x="153" y="643"/>
			<point x="151" y="629"/>
			<point x="157" y="612" type="curve" smooth="yes"/>
			<point x="231" y="426"/>
			<point x="233" y="268"/>
			<point x="198" y="128" type="curve" smooth="yes"/>
			<point x="166" y="2"/>
			<point x="78" y="-139"/>
			<point x="-57" y="-257" type="curve" smooth="yes"/>
			<point x="-76" y="-273"/>
			<point x="-79" y="-287"/>
			<point x="-72" y="-295" type="curve" smooth="yes"/>
			<point x="-65" y="-303"/>
			<point x="-47" y="-301"/>
			<point x="-26" y="-285" type="curve" smooth="yes"/>
			<point x="115" y="-167"/>
			<point x="227" y="15"/>
			<point x="254" y="124" type="curve" smooth="yes"/>
			<point x="284" y="247"/>
			<point x="272" y="443"/>
			<point x="195" y="631" type="curve" smooth="yes"/>
			<point x="188" y="648"/>
			<point x="172" y="653"/>
		</contour>
	</outline>
</glyph>
<glyph name="asterisk" format="2">
  <advance width="367"/>
  <unicode hex="002A"/>
  <outline>
    <contour>
      <point x="269" y="380" type="curve" smooth="yes"/>
      <point x="285" y="380"/>
      <point x="289" y="392"/>
      <point x="289" y="412" type="curve" smooth="yes"/>
      <point x="289" y="648" type="line" smooth="yes"/>
      <point x="289" y="668"/>
      <point x="285" y="680"/>
      <point x="270" y="680" type="curve" smooth="yes"/>
      <point x="253" y="680"/>
      <point x="250" y="668"/>
      <point x="250" y="648" type="curve" smooth="yes"/>
      <point x="250" y="412" type="line" smooth="yes"/>
      <point x="250" y="392"/>
      <point x="254" y="380"/>
    </contour>
    <contour>
      <point x="400" y="604" type="curve" smooth="yes"/>
      <point x="392" y="618"/>
      <point x="380" y="615"/>
      <point x="363" y="605" type="curve" smooth="yes"/>
      <point x="158" y="487" type="line" smooth="yes"/>
      <point x="141" y="477"/>
      <point x="133" y="468"/>
      <point x="140" y="455" type="curve" smooth="yes"/>
      <point x="149" y="440"/>
      <point x="160" y="444"/>
      <point x="178" y="454" type="curve" smooth="yes"/>
      <point x="382" y="572" type="line" smooth="yes"/>
      <point x="400" y="582"/>
      <point x="408" y="591"/>
    </contour>
    <contour>
      <point x="141" y="606" type="curve" smooth="yes"/>
      <point x="133" y="592"/>
      <point x="141" y="583"/>
      <point x="158" y="573" type="curve" smooth="yes"/>
      <point x="363" y="455" type="line" smooth="yes"/>
      <point x="380" y="445"/>
      <point x="392" y="442"/>
      <point x="400" y="455" type="curve" smooth="yes"/>
      <point x="408" y="470"/>
      <point x="400" y="478"/>
      <point x="382" y="488" type="curve" smooth="yes"/>
      <point x="178" y="606" type="line" smooth="yes"/>
      <point x="160" y="616"/>
      <point x="148" y="619"/>
    </contour>
  </outline>
</glyph>
<glyph name="plus" format="2">
  <advance width="382"/>
  <unicode hex="002B"/>
  <outline>
    <contour>
      <point x="168" y="88" type="curve" smooth="yes"/>
      <point x="178" y="88"/>
      <point x="188" y="94"/>
      <point x="192" y="110" type="curve" smooth="yes"/>
      <point x="247" y="331" type="line" smooth="yes"/>
      <point x="251" y="349"/>
      <point x="240" y="361"/>
      <point x="228" y="362" type="curve" smooth="yes"/>
      <point x="218" y="363"/>
      <point x="208" y="356"/>
      <point x="203" y="341" type="curve" smooth="yes"/>
      <point x="149" y="120" type="line" smooth="yes"/>
      <point x="145" y="101"/>
      <point x="156" y="89"/>
    </contour>
    <contour>
      <point x="84" y="205" type="curve" smooth="yes"/>
      <point x="311" y="205" type="line" smooth="yes"/>
      <point x="329" y="205"/>
      <point x="338" y="217"/>
      <point x="338" y="228" type="curve" smooth="yes"/>
      <point x="338" y="239"/>
      <point x="329" y="250"/>
      <point x="311" y="250" type="curve" smooth="yes"/>
      <point x="84" y="250" type="line" smooth="yes"/>
      <point x="66" y="250"/>
      <point x="57" y="239"/>
      <point x="57" y="228" type="curve" smooth="yes"/>
      <point x="57" y="216"/>
      <point x="66" y="205"/>
    </contour>
  </outline>
</glyph>
<glyph name="comma" format="2">
	<advance width="110"/>
	<unicode hex="002C"/>
	<outline>
		<contour>
			<point x="4" y="21" type="line" smooth="yes"/>
			<point x="9" y="39"/>
			<point x="-2" y="50"/>
			<point x="-15" y="52" type="curve" smooth="yes"/>
			<point x="-27" y="55"/>
			<point x="-41" y="49"/>
			<point x="-45" y="32" type="curve" smooth="yes"/>
			<point x="-69" y="-66" type="line" smooth="yes"/>
			<point x="-73" y="-83"/>
			<point x="-64" y="-94"/>
			<point x="-52" y="-97" type="curve" smooth="yes"/>
			<point x="-40" y="-100"/>
			<point x="-25" y="-94"/>
			<point x="-21" y="-76" type="curve" smooth="yes"/>
		</contour>
	</outline>
</glyph>
<glyph name="hyphen" format="2">
	<advance width="262"/>
	<unicode hex="002D"/>
	<outline>
		<contour>
			<point x="172" y="175" type="line" smooth="yes"/>
			<point x="190" y="175"/>
			<point x="199" y="186"/>
			<point x="199" y="198" type="curve" smooth="yes"/>
			<point x="199" y="209"/>
			<point x="190" y="220"/>
			<point x="172" y="220" type="curve" smooth="yes"/>
			<point x="24" y="220" type="line" smooth="yes"/>
			<point x="5" y="220"/>
			<point x="-4" y="208"/>
			<point x="-3" y="196" type="curve" smooth="yes"/>
			<point x="-2" y="185"/>
			<point x="7" y="175"/>
			<point x="24" y="175" type="curve" smooth="yes"/>
		</contour>
	</outline>
</glyph>
<glyph name="period" format="2">
	<advance width="137"/>
	<unicode hex="002E"/>
	<outline>
		<contour>
			<point x="-12" y="-30" type="curve" smooth="yes"/>
			<point x="8" y="-30"/>
			<point x="26" y="-12"/>
			<point x="26" y="9" type="curve" smooth="yes"/>
			<point x="26" y="29"/>
			<point x="8" y="46"/>
			<point x="-12" y="46" type="curve" smooth="yes"/>
			<point x="-33" y="46"/>
			<point x="-49" y="29"/>
			<point x="-49" y="9" type="curve" smooth="yes"/>
			<point x="-49" y="-11"/>
			<point x="-33" y="-30"/>
		</contour>
	</outline>
</glyph>
<glyph name="slash" format="2">
	<advance width="344"/>
	<unicode hex="002F"/>
	<outline>
		<contour>
			<point x="361" y="614" type="line" smooth="yes"/>
			<point x="372" y="635"/>
			<point x="358" y="649"/>
			<point x="343" y="650" type="curve" smooth="yes"/>
			<point x="332" y="650"/>
			<point x="320" y="645"/>
			<point x="312" y="629" type="curve" smooth="yes"/>
			<point x="4" y="32" type="line" smooth="yes"/>
			<point x="-5" y="14"/>
			<point x="8" y="1"/>
			<point x="24" y="0" type="curve" smooth="yes"/>
			<point x="35" y="-1"/>
			<point x="46" y="4"/>
			<point x="53" y="18" type="curve" smooth="yes"/>
		</contour>
	</outline>
</glyph>
<glyph name="zero" format="2">
	<advance width="441"/>
	<unicode hex="0030"/>
	<outline>
		<contour>
			<point x="144" y="-4" type="curve" smooth="yes"/>
			<point x="273" y="-4"/>
			<point x="381" y="230"/>
			<point x="411" y="357" type="curve" smooth="yes"/>
			<point x="440" y="477"/>
			<point x="393" y="568"/>
			<point x="287" y="568" type="curve" smooth="yes"/>
			<point x="114" y="568"/>
			<point x="50" y="277"/>
			<point x="29" y="194" type="curve" smooth="yes"/>
			<point x="1" y="81"/>
			<point x="57" y="-4"/>
		</contour>
		<contour>
			<point x="143" y="42" type="curve" smooth="yes"/>
			<point x="100" y="42"/>
			<point x="53" y="84"/>
			<point x="79" y="189" type="curve" smooth="yes"/>
			<point x="102" y="279"/>
			<point x="168" y="522"/>
			<point x="289" y="522" type="curve" smooth="yes"/>
			<point x="354" y="522"/>
			<point x="387" y="465"/>
			<point x="361" y="360" type="curve" smooth="yes"/>
			<point x="325" y="218"/>
			<point x="214" y="42"/>
		</contour>
	</outline>
</glyph>
<glyph name="one" format="2">
	<advance width="361"/>
	<unicode hex="0031"/>
	<outline>
		<contour>
			<point x="263" y="543" type="line" smooth="yes"/>
			<point x="267" y="559"/>
			<point x="257" y="568"/>
			<point x="244" y="568" type="curve" smooth="yes"/>
			<point x="231" y="568"/>
			<point x="216" y="563"/>
			<point x="212" y="547" type="curve" smooth="yes"/>
			<point x="83" y="30" type="line" smooth="yes"/>
			<point x="78" y="10"/>
			<point x="90" y="0"/>
			<point x="103" y="0" type="curve" smooth="yes"/>
			<point x="115" y="0"/>
			<point x="129" y="6"/>
			<point x="133" y="22" type="curve" smooth="yes"/>
		</contour>
	</outline>
</glyph>
<glyph name="two" format="2">
  <advance width="415"/>
  <unicode hex="0032"/>
  <outline>
    <contour>
      <point x="34" y="0" type="curve" smooth="yes"/>
      <point x="298" y="0" type="line" smooth="yes"/>
      <point x="318" y="0"/>
      <point x="324" y="12"/>
      <point x="324" y="24" type="curve" smooth="yes"/>
      <point x="324" y="36"/>
      <point x="318" y="45"/>
      <point x="298" y="45" type="curve" smooth="yes"/>
      <point x="65" y="45" type="line"/>
      <point x="73" y="29" type="line"/>
      <point x="157" y="113"/>
      <point x="298" y="270"/>
      <point x="311" y="285" type="curve" smooth="yes"/>
      <point x="397" y="390"/>
      <point x="455" y="465"/>
      <point x="455" y="540" type="curve" smooth="yes"/>
      <point x="455" y="600"/>
      <point x="406" y="650"/>
      <point x="338" y="650" type="curve" smooth="yes"/>
      <point x="276" y="650"/>
      <point x="207" y="623"/>
      <point x="164" y="587" type="curve" smooth="yes"/>
      <point x="140" y="567"/>
      <point x="144" y="552"/>
      <point x="152" y="543" type="curve" smooth="yes"/>
      <point x="160" y="534"/>
      <point x="176" y="532"/>
      <point x="201" y="553" type="curve" smooth="yes"/>
      <point x="236" y="582"/>
      <point x="292" y="605"/>
      <point x="338" y="605" type="curve" smooth="yes"/>
      <point x="381" y="605"/>
      <point x="405" y="570"/>
      <point x="405" y="538" type="curve" smooth="yes"/>
      <point x="405" y="493"/>
      <point x="354" y="409"/>
      <point x="272" y="317" type="curve" smooth="yes"/>
      <point x="245" y="286"/>
      <point x="151" y="178"/>
      <point x="21" y="48" type="curve" smooth="yes"/>
      <point x="-6" y="21"/>
      <point x="7" y="0"/>
    </contour>
  </outline>
</glyph>
<glyph name="three" format="2">
  <advance width="397"/>
  <unicode hex="0033"/>
  <outline>
    <contour>
      <point x="269" y="325.0"/>
      <point x="332" y="273"/>
      <point x="305" y="163" type="curve" smooth="yes"/>
      <point x="287" y="85"/>
      <point x="224.0" y="45.0"/>
      <point x="160.0" y="45.0" type="curve" smooth="yes"/>
      <point x="110.0" y="45.0"/>
      <point x="65" y="87"/>
      <point x="53" y="155" type="curve" smooth="yes"/>
      <point x="49" y="178"/>
      <point x="39.0" y="182.0"/>
      <point x="26" y="182" type="curve" smooth="yes"/>
      <point x="15" y="182"/>
      <point x="0" y="173"/>
      <point x="6" y="141" type="curve" smooth="yes"/>
      <point x="21" y="54"/>
      <point x="83.0" y="0.0"/>
      <point x="159.0" y="0.0" type="curve" smooth="yes"/>
      <point x="249.0" y="0.0"/>
      <point x="329" y="56"/>
      <point x="356" y="165" type="curve" smooth="yes"/>
      <point x="385" y="280"/>
      <point x="313" y="361"/>
      <point x="179" y="376" type="curve"/>
      <point x="185" y="369" type="line"/>
      <point x="415" y="600" type="line" smooth="yes"/>
      <point x="429" y="614"/>
      <point x="433" y="619"/>
      <point x="433.0" y="629" type="curve" smooth="yes"/>
      <point x="433.0" y="642.0"/>
      <point x="423" y="650"/>
      <point x="409" y="650" type="curve" smooth="yes"/>
      <point x="162" y="650" type="line" smooth="yes"/>
      <point x="142" y="650"/>
      <point x="136" y="639"/>
      <point x="136" y="627" type="curve" smooth="yes"/>
      <point x="136" y="615"/>
      <point x="142" y="605"/>
      <point x="162" y="605" type="curve" smooth="yes"/>
      <point x="371" y="605" type="line"/>
      <point x="364" y="620" type="line"/>
      <point x="121" y="377" type="line" smooth="yes"/>
      <point x="103.0" y="359.0"/>
      <point x="110" y="335"/>
      <point x="137" y="333" type="curve" smooth="yes"/>
    </contour>
  </outline>
</glyph>
<glyph name="four" format="2">
	<advance width="390"/>
	<unicode hex="0034"/>
	<outline>
		<contour>
			<point x="177" y="539" type="line" smooth="yes"/>
			<point x="181" y="556"/>
			<point x="170" y="567"/>
			<point x="158" y="568" type="curve" smooth="yes"/>
			<point x="146" y="569"/>
			<point x="132" y="564"/>
			<point x="127" y="546" type="curve" smooth="yes"/>
			<point x="28" y="161" type="line" smooth="yes"/>
			<point x="25" y="149"/>
			<point x="34" y="136"/>
			<point x="52" y="135" type="curve" smooth="yes"/>
			<point x="68" y="134"/>
			<point x="76" y="146"/>
			<point x="79" y="158" type="curve" smooth="yes"/>
		</contour>
		<contour>
			<point x="270" y="276" type="line" smooth="yes"/>
			<point x="275" y="295"/>
			<point x="264" y="307"/>
			<point x="252" y="307" type="curve" smooth="yes"/>
			<point x="240" y="307"/>
			<point x="224" y="300"/>
			<point x="221" y="287" type="curve" smooth="yes"/>
			<point x="156" y="32" type="line" smooth="yes"/>
			<point x="151" y="12"/>
			<point x="163" y="0"/>
			<point x="176" y="0" type="curve" smooth="yes"/>
			<point x="188" y="0"/>
			<point x="201" y="4"/>
			<point x="206" y="23" type="curve" smooth="yes"/>
		</contour>
		<contour>
			<point x="50" y="135" type="line"/>
			<point x="357" y="135" type="line" smooth="yes"/>
			<point x="373" y="135"/>
			<point x="383" y="146"/>
			<point x="383" y="158" type="curve" smooth="yes"/>
			<point x="383" y="170"/>
			<point x="373" y="180"/>
			<point x="357" y="180" type="curve" smooth="yes"/>
			<point x="80" y="180" type="line"/>
		</contour>
	</outline>
</glyph>
<glyph name="five" format="2">
  <advance width="442"/>
  <unicode hex="0035"/>
  <outline>
    <contour>
      <point x="179" y="0" type="curve" smooth="yes"/>
      <point x="268" y="0"/>
      <point x="365" y="57"/>
      <point x="404" y="210" type="curve" smooth="yes"/>
      <point x="428" y="306"/>
      <point x="381" y="390"/>
      <point x="252" y="390" type="curve" smooth="yes"/>
      <point x="222" y="390"/>
      <point x="185" y="385"/>
      <point x="158" y="375" type="curve"/>
      <point x="179" y="355" type="line"/>
      <point x="286" y="633" type="line"/>
      <point x="245" y="605" type="line"/>
      <point x="466" y="605" type="line" smooth="yes"/>
      <point x="486" y="605"/>
      <point x="492" y="615"/>
      <point x="492" y="627" type="curve" smooth="yes"/>
      <point x="492" y="639"/>
      <point x="486" y="650"/>
      <point x="466" y="650" type="curve" smooth="yes"/>
      <point x="281" y="650" type="line" smooth="yes"/>
      <point x="246" y="650"/>
      <point x="235" y="643"/>
      <point x="224" y="614" type="curve" smooth="yes"/>
      <point x="129" y="362" type="line" smooth="yes"/>
      <point x="119" y="335"/>
      <point x="139" y="329"/>
      <point x="149" y="329" type="curve" smooth="yes"/>
      <point x="158" y="329"/>
      <point x="165" y="332"/>
      <point x="177" y="336" type="curve" smooth="yes"/>
      <point x="201" y="344"/>
      <point x="219" y="345"/>
      <point x="242" y="345" type="curve" smooth="yes"/>
      <point x="341" y="345"/>
      <point x="378" y="301"/>
      <point x="354" y="208" type="curve" smooth="yes"/>
      <point x="321" y="80"/>
      <point x="233" y="45"/>
      <point x="187" y="45" type="curve" smooth="yes"/>
      <point x="134" y="45"/>
      <point x="99" y="78"/>
      <point x="83" y="141" type="curve" smooth="yes"/>
      <point x="79" y="158"/>
      <point x="68" y="162"/>
      <point x="59" y="162" type="curve" smooth="yes"/>
      <point x="42" y="162"/>
      <point x="30" y="145"/>
      <point x="37" y="121" type="curve" smooth="yes"/>
      <point x="61" y="33"/>
      <point x="121" y="0"/>
    </contour>
  </outline>
</glyph>
<glyph name="six" format="2">
  <advance width="406"/>
  <unicode hex="0036"/>
  <outline>
    <contour>
      <point x="158" y="0" type="curve" smooth="yes"/>
      <point x="271" y="0"/>
      <point x="368" y="120"/>
      <point x="368" y="237" type="curve" smooth="yes"/>
      <point x="368" y="310"/>
      <point x="336" y="354"/>
      <point x="282" y="354" type="curve" smooth="yes"/>
      <point x="245" y="354"/>
      <point x="198" y="330"/>
      <point x="175" y="314" type="curve" smooth="yes"/>
      <point x="157" y="301"/>
      <point x="158" y="284"/>
      <point x="164" y="276" type="curve" smooth="yes"/>
      <point x="170" y="268"/>
      <point x="183" y="264"/>
      <point x="200" y="276" type="curve" smooth="yes"/>
      <point x="219" y="290"/>
      <point x="246" y="309"/>
      <point x="270" y="309" type="curve" smooth="yes"/>
      <point x="302" y="309"/>
      <point x="318" y="274"/>
      <point x="318" y="231" type="curve" smooth="yes"/>
      <point x="318" y="135"/>
      <point x="238" y="45"/>
      <point x="170" y="45" type="curve" smooth="yes"/>
      <point x="124" y="45"/>
      <point x="92" y="72"/>
      <point x="92" y="144" type="curve" smooth="yes"/>
      <point x="92" y="261"/>
      <point x="216" y="469"/>
      <point x="315" y="611" type="curve" smooth="yes"/>
      <point x="328" y="630"/>
      <point x="318" y="650"/>
      <point x="302" y="650" type="curve" smooth="yes"/>
      <point x="291" y="650"/>
      <point x="282" y="648"/>
      <point x="271" y="632" type="curve" smooth="yes"/>
      <point x="179" y="499"/>
      <point x="42" y="266"/>
      <point x="42" y="143" type="curve" smooth="yes"/>
      <point x="42" y="52"/>
      <point x="88" y="0"/>
    </contour>
  </outline>
</glyph>
<glyph name="seven" format="2">
	<advance width="333"/>
	<unicode hex="0037"/>
	<outline>
		<contour>
			<point x="300" y="542" type="line" smooth="yes"/>
			<point x="303" y="554"/>
			<point x="298" y="567"/>
			<point x="278" y="568" type="curve" smooth="yes"/>
			<point x="267" y="569"/>
			<point x="255" y="562"/>
			<point x="252" y="551" type="curve" smooth="yes"/>
			<point x="121" y="28" type="line" smooth="yes"/>
			<point x="116" y="10"/>
			<point x="127" y="1"/>
			<point x="140" y="0" type="curve" smooth="yes"/>
			<point x="152" y="-1"/>
			<point x="166" y="6"/>
			<point x="170" y="24" type="curve" smooth="yes"/>
		</contour>
		<contour>
			<point x="279" y="523" type="line"/>
			<point x="279" y="568" type="line"/>
			<point x="32" y="568" type="line" smooth="yes"/>
			<point x="14" y="568"/>
			<point x="5" y="557"/>
			<point x="5" y="546" type="curve" smooth="yes"/>
			<point x="5" y="534"/>
			<point x="14" y="523"/>
			<point x="32" y="523" type="curve" smooth="yes"/>
		</contour>
	</outline>
</glyph>
<glyph name="eight" format="2">
  <advance width="421"/>
  <unicode hex="0038"/>
  <outline>
    <contour>
      <point x="267" y="322" type="curve" smooth="yes"/>
      <point x="358" y="378"/>
      <point x="413" y="439"/>
      <point x="429" y="503" type="curve" smooth="yes"/>
      <point x="450" y="587"/>
      <point x="402" y="650"/>
      <point x="317" y="650" type="curve" smooth="yes"/>
      <point x="244" y="650"/>
      <point x="179" y="611"/>
      <point x="157" y="524" type="curve" smooth="yes"/>
      <point x="139" y="452"/>
      <point x="169" y="376"/>
      <point x="237" y="326" type="curve"/>
      <point x="267" y="363" type="line"/>
      <point x="216" y="399"/>
      <point x="194" y="459"/>
      <point x="208" y="521" type="curve" smooth="yes"/>
      <point x="222" y="578"/>
      <point x="267" y="605"/>
      <point x="308" y="605" type="curve" smooth="yes"/>
      <point x="363" y="605"/>
      <point x="393" y="561"/>
      <point x="379" y="503" type="curve" smooth="yes"/>
      <point x="367" y="458"/>
      <point x="321" y="411"/>
      <point x="241" y="362" type="curve" smooth="yes"/>
      <point x="137" y="299"/>
      <point x="76" y="228"/>
      <point x="59" y="151" type="curve" smooth="yes"/>
      <point x="39" y="65"/>
      <point x="89.0" y="0.0"/>
      <point x="174.0" y="0.0" type="curve" smooth="yes"/>
      <point x="259.0" y="0.0"/>
      <point x="335" y="70"/>
      <point x="358" y="164" type="curve" smooth="yes"/>
      <point x="375" y="233"/>
      <point x="342" y="307"/>
      <point x="271" y="358" type="curve"/>
      <point x="241" y="319" type="line"/>
      <point x="295" y="281"/>
      <point x="320" y="224"/>
      <point x="307" y="168" type="curve" smooth="yes"/>
      <point x="290" y="98"/>
      <point x="239.0" y="46.0"/>
      <point x="180.0" y="46.0" type="curve" smooth="yes"/>
      <point x="127.0" y="46.0"/>
      <point x="97" y="91"/>
      <point x="110" y="152" type="curve" smooth="yes"/>
      <point x="123" y="209"/>
      <point x="176" y="267"/>
    </contour>
  </outline>
</glyph>
<glyph name="nine" format="2">
  <advance width="455"/>
  <unicode hex="0039"/>
  <outline>
    <contour>
      <point x="296" y="0" type="curve" smooth="yes"/>
      <point x="318" y="0"/>
      <point x="324" y="13"/>
      <point x="326" y="23" type="curve" smooth="yes"/>
      <point x="463" y="581" type="line" smooth="yes"/>
      <point x="467" y="599"/>
      <point x="462" y="614"/>
      <point x="445" y="614" type="curve" smooth="yes"/>
      <point x="426" y="614"/>
      <point x="418" y="605"/>
      <point x="414" y="589" type="curve" smooth="yes"/>
      <point x="275" y="29" type="line" smooth="yes"/>
      <point x="271" y="14"/>
      <point x="278" y="0"/>
    </contour>
    <contour>
      <point x="181" y="246" type="curve" smooth="yes"/>
      <point x="291" y="246"/>
      <point x="406" y="355"/>
      <point x="442" y="501" type="curve" smooth="yes"/>
      <point x="462" y="580"/>
      <point x="432" y="650"/>
      <point x="360" y="650" type="curve" smooth="yes"/>
      <point x="250" y="650"/>
      <point x="136" y="541"/>
      <point x="99" y="395" type="curve" smooth="yes"/>
      <point x="76" y="303"/>
      <point x="108" y="246"/>
    </contour>
    <contour>
      <point x="192" y="291" type="curve" smooth="yes"/>
      <point x="150" y="291"/>
      <point x="135" y="331"/>
      <point x="151" y="395" type="curve" smooth="yes"/>
      <point x="180" y="515"/>
      <point x="268" y="605"/>
      <point x="349" y="605" type="curve" smooth="yes"/>
      <point x="395" y="605"/>
      <point x="403" y="556"/>
      <point x="390" y="501" type="curve" smooth="yes"/>
      <point x="362" y="381"/>
      <point x="273" y="292"/>
    </contour>
  </outline>
</glyph>
<glyph name="colon" format="2">
	<advance width="138"/>
	<unicode hex="003A"/>
	<outline>
		<contour>
			<point x="-12" y="-30" type="curve" smooth="yes"/>
			<point x="9" y="-30"/>
			<point x="27" y="-12"/>
			<point x="27" y="9" type="curve" smooth="yes"/>
			<point x="27" y="29"/>
			<point x="9" y="46"/>
			<point x="-12" y="46" type="curve" smooth="yes"/>
			<point x="-33" y="46"/>
			<point x="-49" y="29"/>
			<point x="-49" y="9" type="curve" smooth="yes"/>
			<point x="-49" y="-11"/>
			<point x="-33" y="-30"/>
		</contour>
		<contour>
			<point x="40" y="175" type="curve" smooth="yes"/>
			<point x="60" y="175"/>
			<point x="78" y="194"/>
			<point x="78" y="214" type="curve" smooth="yes"/>
			<point x="78" y="235"/>
			<point x="60" y="251"/>
			<point x="40" y="251" type="curve" smooth="yes"/>
			<point x="19" y="251"/>
			<point x="3" y="234"/>
			<point x="3" y="214" type="curve" smooth="yes"/>
			<point x="3" y="195"/>
			<point x="19" y="175"/>
		</contour>
	</outline>
</glyph>
<glyph name="semicolon" format="2">
  <advance width="252"/>
  <unicode hex="003B"/>
  <outline>
    <contour>
      <point x="62" y="-73" type="curve" smooth="yes"/>
      <point x="77" y="-73"/>
      <point x="88" y="-67"/>
      <point x="93" y="-49" type="curve" smooth="yes"/>
      <point x="117" y="46" type="line" smooth="yes"/>
      <point x="122" y="67"/>
      <point x="108" y="76"/>
      <point x="95" y="76" type="curve" smooth="yes"/>
      <point x="80" y="76"/>
      <point x="69" y="70"/>
      <point x="64" y="52" type="curve" smooth="yes"/>
      <point x="40" y="-43" type="line" smooth="yes"/>
      <point x="35" y="-64"/>
      <point x="49" y="-73"/>
    </contour>
    <contour>
      <point x="156" y="273" type="curve" smooth="yes"/>
      <point x="176" y="273"/>
      <point x="194" y="291"/>
      <point x="194" y="312" type="curve" smooth="yes"/>
      <point x="194" y="332"/>
      <point x="176" y="349"/>
      <point x="156" y="349" type="curve" smooth="yes"/>
      <point x="135" y="349"/>
      <point x="119" y="332"/>
      <point x="119" y="312" type="curve" smooth="yes"/>
      <point x="119" y="292"/>
      <point x="135" y="273"/>
    </contour>
  </outline>
</glyph>
<glyph name="less" format="2">
	<advance width="315"/>
	<unicode hex="003C"/>
	<outline>
		<contour>
			<point x="35" y="188" type="line"/>
			<point x="258" y="286" type="line" smooth="yes"/>
			<point x="278" y="295"/>
			<point x="282" y="306"/>
			<point x="279" y="317" type="curve" smooth="yes"/>
			<point x="276" y="328"/>
			<point x="265" y="338"/>
			<point x="246" y="330" type="curve" smooth="yes"/>
			<point x="12" y="227" type="line"/>
		</contour>
		<contour>
			<point x="179" y="64" type="line" smooth="yes"/>
			<point x="194" y="53"/>
			<point x="207" y="53"/>
			<point x="216" y="62" type="curve" smooth="yes"/>
			<point x="225" y="72"/>
			<point x="223" y="87"/>
			<point x="208" y="98" type="curve" smooth="yes"/>
			<point x="39" y="223" type="line" smooth="yes"/>
			<point x="25" y="234"/>
			<point x="13" y="230"/>
			<point x="6" y="220" type="curve" smooth="yes"/>
			<point x="-3" y="210"/>
			<point x="-4" y="200"/>
			<point x="10" y="189" type="curve" smooth="yes"/>
		</contour>
	</outline>
</glyph>
<glyph name="equal" format="2">
	<advance width="342"/>
	<unicode hex="003D"/>
	<outline>
		<contour>
			<point x="270" y="248" type="line" smooth="yes"/>
			<point x="288" y="248"/>
			<point x="297" y="260"/>
			<point x="297" y="271" type="curve" smooth="yes"/>
			<point x="297" y="282"/>
			<point x="288" y="293"/>
			<point x="270" y="293" type="curve" smooth="yes"/>
			<point x="43" y="293" type="line" smooth="yes"/>
			<point x="25" y="293"/>
			<point x="16" y="282"/>
			<point x="16" y="271" type="curve" smooth="yes"/>
			<point x="16" y="260"/>
			<point x="25" y="248"/>
			<point x="43" y="248" type="curve" smooth="yes"/>
		</contour>
		<contour>
			<point x="233" y="97" type="line" smooth="yes"/>
			<point x="251" y="97"/>
			<point x="260" y="108"/>
			<point x="260" y="120" type="curve" smooth="yes"/>
			<point x="260" y="131"/>
			<point x="251" y="142"/>
			<point x="233" y="142" type="curve" smooth="yes"/>
			<point x="6" y="142" type="line" smooth="yes"/>
			<point x="-12" y="142"/>
			<point x="-21" y="131"/>
			<point x="-21" y="120" type="curve" smooth="yes"/>
			<point x="-21" y="109"/>
			<point x="-12" y="97"/>
			<point x="6" y="97" type="curve" smooth="yes"/>
		</contour>
	</outline>
</glyph>
<glyph name="greater" format="2">
	<advance width="314"/>
	<unicode hex="003E"/>
	<guideline x="131" y="333" angle="0"/>
	<outline>
		<contour>
			<point x="233" y="161" type="line"/>
			<point x="194" y="193" type="line"/>
			<point x="-11" y="103" type="line" smooth="yes"/>
			<point x="-31" y="94"/>
			<point x="-35" y="83"/>
			<point x="-32" y="71" type="curve" smooth="yes"/>
			<point x="-29" y="61"/>
			<point x="-18" y="51"/>
			<point x="1" y="59" type="curve" smooth="yes"/>
		</contour>
		<contour>
			<point x="208" y="166" type="line" smooth="yes"/>
			<point x="223" y="155"/>
			<point x="234" y="159"/>
			<point x="242" y="168" type="curve" smooth="yes"/>
			<point x="250" y="179"/>
			<point x="251" y="189"/>
			<point x="237" y="200" type="curve" smooth="yes"/>
			<point x="68" y="325" type="line" smooth="yes"/>
			<point x="53" y="336"/>
			<point x="40" y="336"/>
			<point x="31" y="327" type="curve" smooth="yes"/>
			<point x="22" y="316"/>
			<point x="24" y="302"/>
			<point x="39" y="291" type="curve" smooth="yes"/>
		</contour>
	</outline>
</glyph>
<glyph name="question" format="2">
	<advance width="405"/>
	<unicode hex="003F"/>
	<outline>
		<contour>
			<point x="142" y="-24" type="curve" smooth="yes"/>
			<point x="160" y="-24"/>
			<point x="176" y="-9"/>
			<point x="176" y="7" type="curve" smooth="yes"/>
			<point x="176" y="26"/>
			<point x="161" y="41"/>
			<point x="142" y="41" type="curve" smooth="yes"/>
			<point x="125" y="41"/>
			<point x="111" y="25"/>
			<point x="111" y="7" type="curve" smooth="yes"/>
			<point x="111" y="-8"/>
			<point x="125" y="-24"/>
		</contour>
		<contour>
			<point x="243" y="302" type="line" smooth="yes"/>
			<point x="244" y="308"/>
			<point x="238" y="321"/>
			<point x="218" y="322" type="curve" smooth="yes"/>
			<point x="207" y="323"/>
			<point x="195" y="316"/>
			<point x="192" y="305" type="curve" smooth="yes"/>
			<point x="167" y="206" type="line" smooth="yes"/>
			<point x="163" y="192"/>
			<point x="173" y="179"/>
			<point x="185" y="176" type="curve" smooth="yes"/>
			<point x="198" y="173"/>
			<point x="212" y="180"/>
			<point x="218" y="202" type="curve" smooth="yes"/>
		</contour>
		<contour>
			<point x="217" y="272" type="line"/>
			<point x="373" y="272"/>
			<point x="431" y="365"/>
			<point x="466" y="503" type="curve" smooth="yes"/>
			<point x="486" y="582"/>
			<point x="412" y="654"/>
			<point x="321" y="654" type="curve" smooth="yes"/>
			<point x="206" y="654"/>
			<point x="149" y="590"/>
			<point x="125" y="495" type="curve" smooth="yes"/>
			<point x="119" y="473"/>
			<point x="126" y="460"/>
			<point x="137" y="457" type="curve" smooth="yes"/>
			<point x="150" y="454"/>
			<point x="169" y="463"/>
			<point x="174" y="485" type="curve" smooth="yes"/>
			<point x="188" y="542"/>
			<point x="222" y="604"/>
			<point x="307" y="604" type="curve" smooth="yes"/>
			<point x="373" y="604"/>
			<point x="431" y="568"/>
			<point x="416" y="507" type="curve" smooth="yes"/>
			<point x="405" y="461"/>
			<point x="384" y="322"/>
			<point x="222" y="322" type="curve"/>
		</contour>
	</outline>
</glyph>
<glyph name="at" format="2">
  <advance width="621"/>
  <unicode hex="0040"/>
  <outline>
    <contour>
      <point x="256" y="0" type="curve" smooth="yes"/>
      <point x="336" y="0"/>
      <point x="383" y="74"/>
      <point x="410" y="182" type="curve" smooth="yes"/>
      <point x="436" y="286"/>
      <point x="423" y="354"/>
      <point x="356" y="354" type="curve" smooth="yes"/>
      <point x="276" y="354"/>
      <point x="209" y="280"/>
      <point x="182" y="172" type="curve" smooth="yes"/>
      <point x="156" y="68"/>
      <point x="189" y="0"/>
    </contour>
    <contour>
      <point x="267" y="45" type="curve" smooth="yes"/>
      <point x="227" y="45"/>
      <point x="213" y="85"/>
      <point x="232" y="163" type="curve" smooth="yes"/>
      <point x="253" y="248"/>
      <point x="297" y="309"/>
      <point x="345" y="309" type="curve" smooth="yes"/>
      <point x="385" y="309"/>
      <point x="399" y="269"/>
      <point x="380" y="191" type="curve" smooth="yes"/>
      <point x="359" y="106"/>
      <point x="315" y="45"/>
    </contour>
    <contour>
      <point x="252" y="-132" type="curve" smooth="yes"/>
      <point x="293" y="-132"/>
      <point x="342" y="-120"/>
      <point x="372" y="-112" type="curve" smooth="yes"/>
      <point x="392" y="-107"/>
      <point x="396" y="-93"/>
      <point x="393" y="-81" type="curve" smooth="yes"/>
      <point x="388" y="-65"/>
      <point x="369" y="-64"/>
      <point x="357" y="-68" type="curve" smooth="yes"/>
      <point x="327" y="-77"/>
      <point x="284" y="-87"/>
      <point x="249" y="-87" type="curve" smooth="yes"/>
      <point x="128" y="-87"/>
      <point x="59" y="25"/>
      <point x="93" y="162" type="curve" smooth="yes"/>
      <point x="135" y="330"/>
      <point x="245" y="429"/>
      <point x="375" y="429" type="curve" smooth="yes"/>
      <point x="497" y="429"/>
      <point x="566" y="333"/>
      <point x="534" y="198" type="curve" smooth="yes"/>
      <point x="515" y="120"/>
      <point x="461" y="45"/>
      <point x="421" y="45" type="curve" smooth="yes"/>
      <point x="405" y="45"/>
      <point x="403" y="79"/>
      <point x="417" y="133" type="curve" smooth="yes"/>
      <point x="465" y="322" type="line" smooth="yes"/>
      <point x="469" y="338"/>
      <point x="465" y="350"/>
      <point x="448" y="350" type="curve" smooth="yes"/>
      <point x="429" y="350"/>
      <point x="419" y="343"/>
      <point x="414" y="325" type="curve" smooth="yes"/>
      <point x="368" y="144" type="line" smooth="yes"/>
      <point x="345" y="55"/>
      <point x="365" y="0"/>
      <point x="416" y="0" type="curve" smooth="yes"/>
      <point x="479" y="0"/>
      <point x="558" y="94"/>
      <point x="584" y="199" type="curve" smooth="yes"/>
      <point x="623" y="357"/>
      <point x="534" y="474"/>
      <point x="377" y="474" type="curve" smooth="yes"/>
      <point x="220" y="474"/>
      <point x="90" y="358"/>
      <point x="43" y="171" type="curve" smooth="yes"/>
      <point x="0" y="-3"/>
      <point x="92" y="-132"/>
    </contour>
  </outline>
</glyph>
<glyph name="A" format="2">
  <advance width="494"/>
  <unicode hex="0041"/>
  <outline>
    <contour>
      <point x="25" y="0" type="curve" smooth="yes"/>
      <point x="45" y="0"/>
      <point x="50" y="5"/>
      <point x="61" y="23" type="curve" smooth="yes"/>
      <point x="385" y="549" type="line"/>
      <point x="391" y="21" type="line" smooth="yes"/>
      <point x="391" y="11"/>
      <point x="394" y="0"/>
      <point x="415" y="0" type="curve" smooth="yes"/>
      <point x="433" y="0"/>
      <point x="440" y="9"/>
      <point x="440" y="24" type="curve" smooth="yes"/>
      <point x="432" y="630" type="line" smooth="yes"/>
      <point x="432" y="640"/>
      <point x="423" y="650"/>
      <point x="409" y="650" type="curve" smooth="yes"/>
      <point x="389" y="650"/>
      <point x="385" y="640"/>
      <point x="377" y="627" type="curve" smooth="yes"/>
      <point x="11" y="33" type="line" smooth="yes"/>
      <point x="-1" y="14"/>
      <point x="10" y="0"/>
    </contour>
    <contour>
      <point x="221" y="327" type="line"/>
      <point x="412" y="327" type="line"/>
      <point x="411" y="372" type="line"/>
      <point x="246" y="372" type="line"/>
    </contour>
  </outline>
</glyph>
<glyph name="B" format="2">
	<advance width="456"/>
	<unicode hex="0042"/>
	<outline>
		<contour>
			<point x="118" y="328" type="line"/>
			<point x="356" y="312"/>
			<point x="394" y="373"/>
			<point x="415" y="458" type="curve" smooth="yes"/>
			<point x="441" y="564"/>
			<point x="373" y="651"/>
			<point x="181" y="650" type="curve"/>
			<point x="193" y="605" type="line"/>
			<point x="343" y="605"/>
			<point x="386" y="543"/>
			<point x="366" y="463" type="curve" smooth="yes"/>
			<point x="354" y="414"/>
			<point x="329" y="364"/>
			<point x="129" y="378" type="curve"/>
		</contour>
		<contour>
			<point x="27" y="0" type="line"/>
			<point x="293" y="0"/>
			<point x="358" y="44"/>
			<point x="383" y="144" type="curve" smooth="yes"/>
			<point x="414" y="269"/>
			<point x="284" y="367"/>
			<point x="129" y="378" type="curve"/>
			<point x="119" y="328" type="line"/>
			<point x="262" y="318"/>
			<point x="357" y="241"/>
			<point x="335" y="155" type="curve" smooth="yes"/>
			<point x="317" y="82"/>
			<point x="237" y="44"/>
			<point x="53" y="44" type="curve"/>
		</contour>
		<contour>
			<point x="26" y="0" type="curve" smooth="yes"/>
			<point x="40" y="-1"/>
			<point x="49" y="7"/>
			<point x="54" y="27" type="curve" smooth="yes"/>
			<point x="201" y="617" type="line" smooth="yes"/>
			<point x="207" y="639"/>
			<point x="201" y="648"/>
			<point x="182" y="650" type="curve" smooth="yes"/>
			<point x="165" y="651"/>
			<point x="156" y="644"/>
			<point x="151" y="625" type="curve" smooth="yes"/>
			<point x="4" y="33" type="line" smooth="yes"/>
			<point x="0" y="16"/>
			<point x="9" y="1"/>
		</contour>
	</outline>
</glyph>
<glyph name="C" format="2">
	<advance width="489"/>
	<unicode hex="0043"/>
	<outline>
		<contour>
			<point x="393" y="601" type="curve" smooth="yes"/>
			<point x="449" y="601"/>
			<point x="473" y="579"/>
			<point x="477" y="542" type="curve" smooth="yes"/>
			<point x="479" y="528"/>
			<point x="498" y="524"/>
			<point x="510" y="526" type="curve" smooth="yes"/>
			<point x="526" y="529"/>
			<point x="527" y="543"/>
			<point x="525" y="553" type="curve" smooth="yes"/>
			<point x="519" y="612"/>
			<point x="474" y="650"/>
			<point x="397" y="650" type="curve" smooth="yes"/>
			<point x="202" y="650"/>
			<point x="128" y="511"/>
			<point x="88" y="349" type="curve" smooth="yes"/>
			<point x="43" y="169"/>
			<point x="1" y="0"/>
			<point x="186" y="0" type="curve" smooth="yes"/>
			<point x="284" y="0"/>
			<point x="366" y="45"/>
			<point x="407" y="107" type="curve" smooth="yes"/>
			<point x="428" y="140"/>
			<point x="432" y="152"/>
			<point x="432" y="158" type="curve" smooth="yes"/>
			<point x="433" y="170"/>
			<point x="419" y="176"/>
			<point x="408" y="177" type="curve" smooth="yes"/>
			<point x="392" y="178"/>
			<point x="384" y="165"/>
			<point x="368" y="139" type="curve" smooth="yes"/>
			<point x="333" y="86"/>
			<point x="269" y="50"/>
			<point x="188" y="50" type="curve" smooth="yes"/>
			<point x="40" y="50"/>
			<point x="110" y="231"/>
			<point x="141" y="357" type="curve" smooth="yes"/>
			<point x="173" y="486"/>
			<point x="235" y="601"/>
		</contour>
	</outline>
</glyph>
<glyph name="D" format="2">
	<advance width="522"/>
	<unicode hex="0044"/>
	<outline>
		<contour>
			<point x="92" y="0" type="line" smooth="yes"/>
			<point x="284" y="0"/>
			<point x="418" y="115"/>
			<point x="473" y="335" type="curve" smooth="yes"/>
			<point x="515" y="502"/>
			<point x="409" y="650"/>
			<point x="220" y="650" type="curve" smooth="yes"/>
			<point x="184" y="650" type="line"/>
			<point x="176" y="604" type="line"/>
			<point x="221" y="604" type="line" smooth="yes"/>
			<point x="379" y="604"/>
			<point x="456" y="474"/>
			<point x="423" y="337" type="curve" smooth="yes"/>
			<point x="375" y="145"/>
			<point x="257" y="49"/>
			<point x="96" y="46" type="curve" smooth="yes"/>
			<point x="43" y="45" type="line"/>
			<point x="29" y="0" type="line"/>
		</contour>
		<contour>
			<point x="23" y="0" type="curve" smooth="yes"/>
			<point x="45" y="0"/>
			<point x="50" y="13"/>
			<point x="53" y="23" type="curve" smooth="yes"/>
			<point x="202" y="618" type="line" smooth="yes"/>
			<point x="207" y="636"/>
			<point x="205" y="650"/>
			<point x="184" y="650" type="curve" smooth="yes"/>
			<point x="162" y="650"/>
			<point x="157" y="641"/>
			<point x="153" y="626" type="curve" smooth="yes"/>
			<point x="2" y="28" type="line" smooth="yes"/>
			<point x="-2" y="14"/>
			<point x="5" y="0"/>
		</contour>
	</outline>
</glyph>
<glyph name="E" format="2">
	<advance width="498"/>
	<unicode hex="0045"/>
	<outline>
		<contour>
			<point x="201" y="615" type="line" smooth="yes"/>
			<point x="206" y="633"/>
			<point x="206" y="650"/>
			<point x="185" y="650" type="curve" smooth="yes"/>
			<point x="163" y="650"/>
			<point x="156" y="641"/>
			<point x="152" y="625" type="curve" smooth="yes"/>
			<point x="3" y="29" type="line" smooth="yes"/>
			<point x="-1" y="14"/>
			<point x="6" y="1"/>
			<point x="24" y="0" type="curve" smooth="yes"/>
			<point x="46" y="-1"/>
			<point x="51" y="16"/>
			<point x="54" y="26" type="curve" smooth="yes"/>
		</contour>
		<contour>
			<point x="24" y="0" type="line"/>
			<point x="361" y="0" type="line" smooth="yes"/>
			<point x="381" y="0"/>
			<point x="387" y="12"/>
			<point x="387" y="24" type="curve" smooth="yes"/>
			<point x="387" y="36"/>
			<point x="381" y="46"/>
			<point x="361" y="46" type="curve" smooth="yes"/>
			<point x="54" y="46" type="line"/>
		</contour>
		<contour>
			<point x="122" y="327" type="line"/>
			<point x="426" y="327" type="line" smooth="yes"/>
			<point x="446" y="327"/>
			<point x="452" y="338"/>
			<point x="452" y="350" type="curve" smooth="yes"/>
			<point x="452" y="362"/>
			<point x="446" y="373"/>
			<point x="426" y="373" type="curve" smooth="yes"/>
			<point x="133" y="373" type="line"/>
		</contour>
		<contour>
			<point x="190" y="604" type="line"/>
			<point x="510" y="604" type="line" smooth="yes"/>
			<point x="530" y="604"/>
			<point x="536" y="615"/>
			<point x="536" y="627" type="curve" smooth="yes"/>
			<point x="536" y="639"/>
			<point x="530" y="650"/>
			<point x="510" y="650" type="curve" smooth="yes"/>
			<point x="184" y="650" type="line"/>
		</contour>
	</outline>
</glyph>
<glyph name="F" format="2">
	<advance width="494"/>
	<unicode hex="0046"/>
	<outline>
		<contour>
			<point x="24" y="0" type="curve" smooth="yes"/>
			<point x="46" y="0"/>
			<point x="51" y="14"/>
			<point x="54" y="24" type="curve" smooth="yes"/>
			<point x="201" y="618" type="line" smooth="yes"/>
			<point x="205" y="636"/>
			<point x="204" y="649"/>
			<point x="183" y="650" type="curve" smooth="yes"/>
			<point x="161" y="652"/>
			<point x="155" y="641"/>
			<point x="151" y="625" type="curve" smooth="yes"/>
			<point x="3" y="29" type="line" smooth="yes"/>
			<point x="-1" y="14"/>
			<point x="6" y="0"/>
		</contour>
		<contour>
			<point x="123" y="327" type="line"/>
			<point x="426" y="327" type="line" smooth="yes"/>
			<point x="446" y="327"/>
			<point x="452" y="338"/>
			<point x="452" y="350" type="curve" smooth="yes"/>
			<point x="452" y="362"/>
			<point x="446" y="373"/>
			<point x="426" y="373" type="curve" smooth="yes"/>
			<point x="130" y="373" type="line"/>
		</contour>
		<contour>
			<point x="173" y="604" type="line"/>
			<point x="510" y="604" type="line" smooth="yes"/>
			<point x="530" y="604"/>
			<point x="536" y="615"/>
			<point x="536" y="627" type="curve" smooth="yes"/>
			<point x="536" y="639"/>
			<point x="530" y="650"/>
			<point x="510" y="650" type="curve" smooth="yes"/>
			<point x="180" y="650" type="line"/>
		</contour>
	</outline>
</glyph>
<glyph name="G" format="2">
  <advance width="459"/>
  <unicode hex="0047"/>
  <outline>
    <contour>
      <point x="352" y="650" type="curve" smooth="yes"/>
      <point x="227" y="650"/>
      <point x="136" y="540"/>
      <point x="91" y="362" type="curve" smooth="yes"/>
      <point x="35" y="138"/>
      <point x="69" y="0"/>
      <point x="179" y="0" type="curve" smooth="yes"/>
      <point x="259" y="0"/>
      <point x="327" y="47"/>
      <point x="373" y="131" type="curve"/>
      <point x="346" y="28" type="line" smooth="yes"/>
      <point x="343" y="16"/>
      <point x="346" y="0"/>
      <point x="365" y="0" type="curve" smooth="yes"/>
      <point x="388" y="0"/>
      <point x="394" y="14"/>
      <point x="397" y="25" type="curve" smooth="yes"/>
      <point x="469" y="307" type="line" smooth="yes"/>
      <point x="474" y="327"/>
      <point x="459" y="336"/>
      <point x="446" y="336" type="curve" smooth="yes"/>
      <point x="423" y="336"/>
      <point x="424" y="333"/>
      <point x="390" y="247" type="curve" smooth="yes"/>
      <point x="341" y="122"/>
      <point x="263" y="45"/>
      <point x="185" y="45" type="curve" smooth="yes"/>
      <point x="109" y="45"/>
      <point x="94" y="169"/>
      <point x="145" y="370" type="curve" smooth="yes"/>
      <point x="184" y="525"/>
      <point x="259" y="604"/>
      <point x="348" y="604" type="curve" smooth="yes"/>
      <point x="380" y="604"/>
      <point x="404.0" y="583.0"/>
      <point x="420.0" y="542.0" type="curve" smooth="yes"/>
      <point x="425" y="528"/>
      <point x="438" y="521"/>
      <point x="454.0" y="526.0" type="curve" smooth="yes"/>
      <point x="468" y="530"/>
      <point x="473" y="541"/>
      <point x="469.0" y="553.0" type="curve" smooth="yes"/>
      <point x="446.0" y="617.0"/>
      <point x="407" y="650"/>
    </contour>
  </outline>
</glyph>
<glyph name="H" format="2">
  <advance width="567"/>
  <unicode hex="0048"/>
  <outline>
    <contour>
      <point x="69" y="0" type="curve" smooth="yes"/>
      <point x="91" y="0"/>
      <point x="97" y="13"/>
      <point x="99" y="23" type="curve" smooth="yes"/>
      <point x="245" y="617" type="line" smooth="yes"/>
      <point x="249" y="635"/>
      <point x="244" y="650"/>
      <point x="227" y="650" type="curve" smooth="yes"/>
      <point x="208" y="650"/>
      <point x="200" y="641"/>
      <point x="196" y="625" type="curve" smooth="yes"/>
      <point x="48" y="29" type="line" smooth="yes"/>
      <point x="44" y="14"/>
      <point x="51" y="0"/>
    </contour>
    <contour>
      <point x="151" y="328" type="line"/>
      <point x="485" y="328" type="line"/>
      <point x="496" y="373" type="line"/>
      <point x="162" y="373" type="line"/>
    </contour>
    <contour>
      <point x="408" y="0" type="curve" smooth="yes"/>
      <point x="427" y="0"/>
      <point x="435" y="11"/>
      <point x="437" y="20" type="curve" smooth="yes"/>
      <point x="583" y="620" type="line" smooth="yes"/>
      <point x="587" y="637"/>
      <point x="582" y="650"/>
      <point x="563" y="650" type="curve" smooth="yes"/>
      <point x="545" y="650"/>
      <point x="536" y="640"/>
      <point x="534" y="630" type="curve" smooth="yes"/>
      <point x="387" y="28" type="line" smooth="yes"/>
      <point x="384" y="16"/>
      <point x="386" y="0"/>
    </contour>
  </outline>
</glyph>
<glyph name="I" format="2">
	<advance width="419"/>
	<unicode hex="0049"/>
	<outline>
		<contour>
			<point x="113" y="40" type="line"/>
			<point x="165" y="40" type="line"/>
			<point x="307" y="609" type="line"/>
			<point x="256" y="610" type="line"/>
		</contour>
		<contour>
			<point x="381" y="604" type="line" smooth="yes"/>
			<point x="401" y="604"/>
			<point x="407" y="615"/>
			<point x="407" y="627" type="curve" smooth="yes"/>
			<point x="407" y="639"/>
			<point x="401" y="650"/>
			<point x="381" y="650" type="curve" smooth="yes"/>
			<point x="188" y="650" type="line" smooth="yes"/>
			<point x="168" y="650"/>
			<point x="162" y="639"/>
			<point x="162" y="627" type="curve" smooth="yes"/>
			<point x="162" y="615"/>
			<point x="168" y="604"/>
			<point x="188" y="604" type="curve" smooth="yes"/>
		</contour>
		<contour>
			<point x="232" y="0" type="line" smooth="yes"/>
			<point x="252" y="0"/>
			<point x="258" y="11"/>
			<point x="258" y="23" type="curve" smooth="yes"/>
			<point x="258" y="35"/>
			<point x="252" y="47"/>
			<point x="232" y="47" type="curve" smooth="yes"/>
			<point x="39" y="47" type="line" smooth="yes"/>
			<point x="19" y="47"/>
			<point x="13" y="35"/>
			<point x="13" y="23" type="curve" smooth="yes"/>
			<point x="13" y="11"/>
			<point x="19" y="0"/>
			<point x="39" y="0" type="curve" smooth="yes"/>
		</contour>
	</outline>
</glyph>
<glyph name="J" format="2">
  <advance width="425"/>
  <unicode hex="004A"/>
  <outline>
    <contour>
      <point x="158.0" y="0.0" type="curve" smooth="yes"/>
      <point x="244" y="0"/>
      <point x="307" y="65"/>
      <point x="338" y="192" type="curve" smooth="yes"/>
      <point x="444" y="618" type="line" smooth="yes"/>
      <point x="448" y="635"/>
      <point x="446" y="649"/>
      <point x="426" y="650" type="curve" smooth="yes"/>
      <point x="406" y="651"/>
      <point x="398" y="641"/>
      <point x="394" y="625" type="curve" smooth="yes"/>
      <point x="287" y="195" type="line" smooth="yes"/>
      <point x="261" y="96"/>
      <point x="216" y="46"/>
      <point x="161.0" y="46.0" type="curve" smooth="yes"/>
      <point x="106" y="46"/>
      <point x="86" y="87"/>
      <point x="86" y="150" type="curve" smooth="yes"/>
      <point x="86" y="178"/>
      <point x="80" y="192.0"/>
      <point x="63" y="192" type="curve" smooth="yes"/>
      <point x="48" y="192"/>
      <point x="36" y="179"/>
      <point x="36" y="150" type="curve" smooth="yes"/>
      <point x="35" y="57"/>
      <point x="79" y="0"/>
    </contour>
  </outline>
</glyph>
<glyph name="K" format="2">
  <advance width="512"/>
  <unicode hex="004B"/>
  <outline>
    <contour>
      <point x="214" y="336" type="line"/>
      <point x="549" y="602" type="line" smooth="yes"/>
      <point x="561" y="611"/>
      <point x="568" y="620"/>
      <point x="568.0" y="631" type="curve" smooth="yes"/>
      <point x="568" y="641"/>
      <point x="561" y="650"/>
      <point x="548" y="650" type="curve" smooth="yes"/>
      <point x="540" y="651"/>
      <point x="529" y="646"/>
      <point x="517" y="637" type="curve" smooth="yes"/>
      <point x="156" y="350" type="line"/>
      <point x="156" y="338" type="line"/>
    </contour>
    <contour>
      <point x="433" y="0" type="curve" smooth="yes"/>
      <point x="449.38507875982987" y="0.0"/>
      <point x="468" y="19"/>
      <point x="450" y="42" type="curve" smooth="yes"/>
      <point x="214" y="344" type="line"/>
      <point x="156" y="346" type="line"/>
      <point x="156" y="335" type="line"/>
      <point x="403" y="19" type="line" smooth="yes"/>
      <point x="411" y="9"/>
      <point x="420" y="0"/>
    </contour>
    <contour>
      <point x="68" y="0" type="curve" smooth="yes"/>
      <point x="88" y="0"/>
      <point x="95" y="16"/>
      <point x="98" y="29" type="curve" smooth="yes"/>
      <point x="246" y="617" type="line" smooth="yes"/>
      <point x="251" y="635"/>
      <point x="247" y="650"/>
      <point x="228" y="650" type="curve" smooth="yes"/>
      <point x="208" y="650"/>
      <point x="201" y="639"/>
      <point x="197" y="625" type="curve" smooth="yes"/>
      <point x="48" y="34" type="line" smooth="yes"/>
      <point x="44" y="19"/>
      <point x="50" y="0"/>
    </contour>
  </outline>
</glyph>
<glyph name="L" format="2">
	<advance width="424"/>
	<unicode hex="004C"/>
	<outline>
		<contour>
			<point x="24" y="0" type="curve" smooth="yes"/>
			<point x="46" y="0"/>
			<point x="51" y="13"/>
			<point x="53" y="23" type="curve" smooth="yes"/>
			<point x="200" y="617" type="line" smooth="yes"/>
			<point x="204" y="635"/>
			<point x="202" y="648"/>
			<point x="182" y="650" type="curve" smooth="yes"/>
			<point x="162" y="651"/>
			<point x="155" y="641"/>
			<point x="151" y="625" type="curve" smooth="yes"/>
			<point x="3" y="29" type="line" smooth="yes"/>
			<point x="-1" y="14"/>
			<point x="6" y="0"/>
		</contour>
		<contour>
			<point x="361" y="0" type="line" smooth="yes"/>
			<point x="379" y="0"/>
			<point x="387" y="14"/>
			<point x="387" y="26" type="curve" smooth="yes"/>
			<point x="387" y="38"/>
			<point x="379" y="50"/>
			<point x="361" y="50" type="curve" smooth="yes"/>
			<point x="50" y="50" type="line"/>
			<point x="23" y="0" type="line"/>
		</contour>
	</outline>
</glyph>
<glyph name="M" format="2">
  <advance width="699"/>
  <unicode hex="004D"/>
  <guideline x="305" y="548" angle="0" identifier="uzSYBaR9Es"/>
  <outline>
    <contour>
      <point x="69" y="0" type="curve" smooth="yes"/>
      <point x="87" y="0"/>
      <point x="95" y="12"/>
      <point x="98" y="24" type="curve" smooth="yes"/>
      <point x="234" y="575" type="line"/>
      <point x="225" y="576" type="line"/>
      <point x="279" y="18" type="line" smooth="yes"/>
      <point x="280" y="6"/>
      <point x="288" y="0"/>
      <point x="302" y="0" type="curve" smooth="yes"/>
      <point x="314" y="0"/>
      <point x="325" y="6"/>
      <point x="332" y="18" type="curve" smooth="yes"/>
      <point x="680" y="595" type="line"/>
      <point x="661" y="595" type="line"/>
      <point x="519" y="30" type="line" smooth="yes"/>
      <point x="516" y="19"/>
      <point x="520" y="0"/>
      <point x="540" y="0.0" type="curve" smooth="yes"/>
      <point x="561" y="0"/>
      <point x="566" y="11"/>
      <point x="569" y="21" type="curve" smooth="yes"/>
      <point x="713" y="602" type="line" smooth="yes"/>
      <point x="720" y="632"/>
      <point x="708" y="650.0"/>
      <point x="680" y="650.0" type="curve" smooth="yes"/>
      <point x="661" y="650.0"/>
      <point x="647" y="637"/>
      <point x="626" y="601" type="curve" smooth="yes"/>
      <point x="320" y="87" type="line"/>
      <point x="273" y="599" type="line" smooth="yes"/>
      <point x="270" y="631"/>
      <point x="257" y="650.0"/>
      <point x="235" y="650.0" type="curve" smooth="yes"/>
      <point x="213" y="650.0"/>
      <point x="196" y="632"/>
      <point x="190" y="603" type="curve" smooth="yes"/>
      <point x="48" y="30" type="line" smooth="yes"/>
      <point x="45" y="16"/>
      <point x="52" y="0"/>
    </contour>
  </outline>
</glyph>
<glyph name="N" format="2">
	<advance width="565"/>
	<unicode hex="004E"/>
	<outline>
		<contour>
			<point x="382" y="18" type="line" smooth="yes"/>
			<point x="386" y="8"/>
			<point x="395" y="0"/>
			<point x="409" y="0" type="curve"/>
			<point x="415" y="74" type="line"/>
			<point x="212" y="630" type="line" smooth="yes"/>
			<point x="209" y="639"/>
			<point x="199" y="650"/>
			<point x="181" y="650" type="curve"/>
			<point x="174" y="588" type="line"/>
		</contour>
		<contour>
			<point x="24" y="0" type="curve" smooth="yes"/>
			<point x="45" y="0"/>
			<point x="51" y="14"/>
			<point x="54" y="26" type="curve" smooth="yes"/>
			<point x="193" y="586" type="line"/>
			<point x="183" y="650" type="line"/>
			<point x="161" y="650"/>
			<point x="155" y="641"/>
			<point x="151" y="625" type="curve" smooth="yes"/>
			<point x="3" y="29" type="line" smooth="yes"/>
			<point x="-1" y="14"/>
			<point x="5" y="0"/>
		</contour>
		<contour>
			<point x="436" y="23" type="curve" smooth="yes"/>
			<point x="585" y="619" type="line" smooth="yes"/>
			<point x="589" y="637"/>
			<point x="586" y="650"/>
			<point x="566" y="650" type="curve" smooth="yes"/>
			<point x="548" y="650"/>
			<point x="539" y="640"/>
			<point x="535" y="626" type="curve" smooth="yes"/>
			<point x="398" y="78" type="line"/>
			<point x="408" y="0" type="line"/>
			<point x="425" y="0"/>
			<point x="434" y="13"/>
		</contour>
	</outline>
</glyph>
<glyph name="O" format="2">
  <advance width="481"/>
  <unicode hex="004F"/>
  <outline>
    <contour>
      <point x="210.0" y="0.0" type="curve" smooth="yes"/>
      <point x="332" y="0"/>
      <point x="434" y="135"/>
      <point x="481" y="353" type="curve" smooth="yes"/>
      <point x="520" y="534"/>
      <point x="471.0" y="650.0"/>
      <point x="352" y="650.0" type="curve" smooth="yes"/>
      <point x="209" y="650"/>
      <point x="103" y="503"/>
      <point x="75" y="266" type="curve" smooth="yes"/>
      <point x="56" y="102"/>
      <point x="107.0" y="0.0"/>
    </contour>
    <contour>
      <point x="211.0" y="46.0" type="curve" smooth="yes"/>
      <point x="142" y="46"/>
      <point x="111" y="133"/>
      <point x="128" y="275" type="curve" smooth="yes"/>
      <point x="152" y="478"/>
      <point x="233.0" y="604.0"/>
      <point x="346.0" y="604.0" type="curve" smooth="yes"/>
      <point x="429.0" y="604.0"/>
      <point x="462" y="507"/>
      <point x="428" y="350" type="curve" smooth="yes"/>
      <point x="387" y="162"/>
      <point x="305.0" y="46.0"/>
    </contour>
  </outline>
</glyph>
<glyph name="P" format="2">
	<advance width="478"/>
	<unicode hex="0050"/>
	<outline>
		<contour>
			<point x="124" y="332" type="line"/>
			<point x="313" y="332"/>
			<point x="470" y="344"/>
			<point x="502" y="471" type="curve" smooth="yes"/>
			<point x="532" y="591"/>
			<point x="394" y="650"/>
			<point x="180" y="650" type="curve"/>
			<point x="190" y="600" type="line"/>
			<point x="381" y="600"/>
			<point x="472" y="555"/>
			<point x="453" y="480" type="curve" smooth="yes"/>
			<point x="431" y="393"/>
			<point x="288" y="381"/>
			<point x="134" y="381" type="curve"/>
		</contour>
		<contour>
			<point x="200" y="618" type="line" smooth="yes"/>
			<point x="204" y="636"/>
			<point x="203" y="650"/>
			<point x="182" y="650" type="curve" smooth="yes"/>
			<point x="160" y="650"/>
			<point x="155" y="641"/>
			<point x="151" y="625" type="curve" smooth="yes"/>
			<point x="3" y="32" type="line" smooth="yes"/>
			<point x="-1" y="17"/>
			<point x="6" y="0"/>
			<point x="24" y="0" type="curve" smooth="yes"/>
			<point x="45" y="0"/>
			<point x="52" y="17"/>
			<point x="54" y="26" type="curve" smooth="yes"/>
		</contour>
	</outline>
</glyph>
<glyph name="Q" format="2">
  <advance width="481"/>
  <unicode hex="0051"/>
  <outline>
    <contour>
      <point x="210" y="0" type="curve" smooth="yes"/>
      <point x="332" y="0"/>
      <point x="434" y="135"/>
      <point x="481" y="353" type="curve" smooth="yes"/>
      <point x="520" y="534"/>
      <point x="471" y="650"/>
      <point x="352" y="650" type="curve" smooth="yes"/>
      <point x="209" y="650"/>
      <point x="103" y="503"/>
      <point x="75" y="266" type="curve" smooth="yes"/>
      <point x="56" y="102"/>
      <point x="107" y="0"/>
    </contour>
    <contour>
      <point x="211" y="46" type="curve" smooth="yes"/>
      <point x="142" y="46"/>
      <point x="111" y="133"/>
      <point x="128" y="275" type="curve" smooth="yes"/>
      <point x="152" y="478"/>
      <point x="233" y="604"/>
      <point x="346" y="604" type="curve" smooth="yes"/>
      <point x="429" y="604"/>
      <point x="462" y="507"/>
      <point x="428" y="350" type="curve" smooth="yes"/>
      <point x="387" y="162"/>
      <point x="305" y="46"/>
    </contour>
    <contour>
      <point x="399" y="-34" type="curve" smooth="yes"/>
      <point x="412" y="-27"/>
      <point x="413" y="-8"/>
      <point x="405" y="5" type="curve" smooth="yes"/>
      <point x="303" y="166" type="line" smooth="yes"/>
      <point x="294" y="181"/>
      <point x="276" y="187"/>
      <point x="261" y="175" type="curve" smooth="yes"/>
      <point x="250" y="168"/>
      <point x="251" y="155"/>
      <point x="262" y="138" type="curve" smooth="yes"/>
      <point x="361" y="-16" type="line" smooth="yes"/>
      <point x="371" y="-31"/>
      <point x="386" y="-41"/>
    </contour>
  </outline>
</glyph>
<glyph name="R" format="2">
	<advance width="512"/>
	<unicode hex="0052"/>
	<outline>
		<contour>
			<point x="114" y="328" type="line"/>
			<point x="298" y="328"/>
			<point x="472" y="337"/>
			<point x="508" y="481" type="curve" smooth="yes"/>
			<point x="538" y="600"/>
			<point x="400" y="650"/>
			<point x="181" y="650" type="curve"/>
			<point x="183" y="604" type="line"/>
			<point x="368" y="604"/>
			<point x="479" y="572"/>
			<point x="459" y="491" type="curve" smooth="yes"/>
			<point x="432" y="383"/>
			<point x="279" y="374"/>
			<point x="125" y="374" type="curve"/>
		</contour>
		<contour>
			<point x="167" y="334" type="line"/>
			<point x="99" y="341" type="line"/>
			<point x="345" y="19" type="line" smooth="yes"/>
			<point x="355" y="6"/>
			<point x="362" y="0"/>
			<point x="370" y="0" type="curve" smooth="yes"/>
			<point x="380" y="0"/>
			<point x="390" y="7"/>
			<point x="393" y="15" type="curve" smooth="yes"/>
			<point x="396" y="23"/>
			<point x="396" y="34"/>
			<point x="390" y="42" type="curve" smooth="yes"/>
		</contour>
		<contour>
			<point x="200" y="618" type="line" smooth="yes"/>
			<point x="204" y="636"/>
			<point x="203" y="649"/>
			<point x="182" y="650" type="curve" smooth="yes"/>
			<point x="160" y="652"/>
			<point x="155" y="641"/>
			<point x="151" y="625" type="curve" smooth="yes"/>
			<point x="4" y="34" type="line" smooth="yes"/>
			<point x="0" y="17"/>
			<point x="5" y="0"/>
			<point x="23" y="0" type="curve" smooth="yes"/>
			<point x="45" y="0"/>
			<point x="51" y="14"/>
			<point x="54" y="28" type="curve" smooth="yes"/>
		</contour>
	</outline>
</glyph>
<glyph name="S" format="2">
  <advance width="447"/>
  <unicode hex="0053"/>
  <outline>
    <contour>
      <point x="206" y="0" type="curve" smooth="yes"/>
      <point x="299" y="0"/>
      <point x="372" y="63"/>
      <point x="398" y="164" type="curve" smooth="yes"/>
      <point x="425" y="278"/>
      <point x="386" y="338"/>
      <point x="264" y="370" type="curve" smooth="yes"/>
      <point x="192" y="389"/>
      <point x="162" y="424"/>
      <point x="175" y="473" type="curve" smooth="yes"/>
      <point x="193" y="546"/>
      <point x="270" y="604"/>
      <point x="339" y="604" type="curve" smooth="yes"/>
      <point x="381" y="604"/>
      <point x="408" y="573"/>
      <point x="429" y="509" type="curve" smooth="yes"/>
      <point x="433" y="496"/>
      <point x="447" y="492"/>
      <point x="459" y="494" type="curve" smooth="yes"/>
      <point x="475" y="497"/>
      <point x="481" y="512"/>
      <point x="478" y="522" type="curve" smooth="yes"/>
      <point x="454" y="607"/>
      <point x="412" y="650"/>
      <point x="344" y="650" type="curve" smooth="yes"/>
      <point x="249" y="650"/>
      <point x="149" y="579"/>
      <point x="126" y="484" type="curve" smooth="yes"/>
      <point x="107" y="403"/>
      <point x="150" y="348"/>
      <point x="255" y="320" type="curve" smooth="yes"/>
      <point x="340" y="297"/>
      <point x="367" y="254"/>
      <point x="348" y="172" type="curve" smooth="yes"/>
      <point x="330" y="94"/>
      <point x="277" y="46"/>
      <point x="209" y="46" type="curve" smooth="yes"/>
      <point x="144" y="46"/>
      <point x="100" y="93"/>
      <point x="92" y="168" type="curve" smooth="yes"/>
      <point x="91" y="182"/>
      <point x="81" y="188"/>
      <point x="65" y="187" type="curve" smooth="yes"/>
      <point x="49" y="186"/>
      <point x="41" y="178"/>
      <point x="42" y="163" type="curve" smooth="yes"/>
      <point x="53" y="62"/>
      <point x="116" y="0"/>
    </contour>
  </outline>
</glyph>
<glyph name="T" format="2">
  <advance width="478"/>
  <unicode hex="0054"/>
  <outline>
    <contour>
      <point x="198" y="0" type="curve" smooth="yes"/>
      <point x="216" y="0"/>
      <point x="224" y="13"/>
      <point x="226" y="23" type="curve" smooth="yes"/>
      <point x="377" y="626" type="line"/>
      <point x="325" y="626" type="line"/>
      <point x="176" y="31" type="line" smooth="yes"/>
      <point x="173" y="17"/>
      <point x="180" y="0"/>
    </contour>
    <contour>
      <point x="173" y="605" type="curve" smooth="yes"/>
      <point x="527" y="605" type="line" smooth="yes"/>
      <point x="547" y="605"/>
      <point x="553" y="615"/>
      <point x="553" y="627" type="curve" smooth="yes"/>
      <point x="553" y="639"/>
      <point x="547" y="650"/>
      <point x="527" y="650" type="curve" smooth="yes"/>
      <point x="173" y="650" type="line" smooth="yes"/>
      <point x="153" y="650"/>
      <point x="147" y="639"/>
      <point x="147" y="627" type="curve" smooth="yes"/>
      <point x="147" y="615"/>
      <point x="153" y="605"/>
    </contour>
  </outline>
</glyph>
<glyph name="U" format="2">
  <advance width="560"/>
  <unicode hex="0055"/>
  <outline>
    <contour>
      <point x="194" y="0" type="curve" smooth="yes"/>
      <point x="306" y="0"/>
      <point x="422" y="131"/>
      <point x="465" y="307" type="curve"/>
      <point x="494" y="434" type="line"/>
      <point x="481" y="435" type="line"/>
      <point x="421" y="212"/>
      <point x="303" y="45"/>
      <point x="205" y="45" type="curve" smooth="yes"/>
      <point x="141" y="45"/>
      <point x="120" y="115"/>
      <point x="149" y="229" type="curve" smooth="yes"/>
      <point x="247" y="620" type="line" smooth="yes"/>
      <point x="251" y="634"/>
      <point x="243" y="648"/>
      <point x="228" y="650" type="curve" smooth="yes"/>
      <point x="212" y="651"/>
      <point x="200" y="638"/>
      <point x="196" y="622" type="curve" smooth="yes"/>
      <point x="99" y="235" type="line" smooth="yes"/>
      <point x="62" y="90"/>
      <point x="99" y="0"/>
    </contour>
    <contour>
      <point x="400" y="0" type="curve" smooth="yes"/>
      <point x="412" y="-1"/>
      <point x="425" y="6"/>
      <point x="429" y="21" type="curve" smooth="yes"/>
      <point x="580" y="622" type="line" smooth="yes"/>
      <point x="584" y="637"/>
      <point x="577" y="648"/>
      <point x="558" y="650" type="curve" smooth="yes"/>
      <point x="540" y="651"/>
      <point x="532" y="639"/>
      <point x="529" y="627" type="curve" smooth="yes"/>
      <point x="379" y="29" type="line" smooth="yes"/>
      <point x="375" y="11"/>
      <point x="386" y="1"/>
    </contour>
  </outline>
</glyph>
<glyph name="V" format="2">
  <advance width="439"/>
  <unicode hex="0056"/>
  <outline>
    <contour>
      <point x="159" y="25" type="line" smooth="yes"/>
      <point x="160" y="15"/>
      <point x="166" y="0"/>
      <point x="185" y="0" type="curve" smooth="yes"/>
      <point x="204" y="0"/>
      <point x="210" y="11"/>
      <point x="217" y="25" type="curve" smooth="yes"/>
      <point x="510" y="618" type="line" smooth="yes"/>
      <point x="520" y="638"/>
      <point x="508" y="650"/>
      <point x="493" y="650" type="curve" smooth="yes"/>
      <point x="474" y="650"/>
      <point x="466" y="642"/>
      <point x="458" y="625" type="curve" smooth="yes"/>
      <point x="193" y="84" type="line"/>
      <point x="204" y="81" type="line"/>
      <point x="176" y="626" type="line" smooth="yes"/>
      <point x="175" y="636"/>
      <point x="171" y="650"/>
      <point x="149" y="650" type="curve"/>
      <point x="131" y="650"/>
      <point x="125" y="639"/>
      <point x="126" y="624" type="curve" smooth="yes"/>
    </contour>
  </outline>
</glyph>
<glyph name="W" format="2">
  <advance width="715"/>
  <unicode hex="0057"/>
  <outline>
    <contour>
      <point x="173" y="0" type="curve"/>
      <point x="187" y="0"/>
      <point x="198" y="8"/>
      <point x="206" y="25" type="curve" smooth="yes"/>
      <point x="444" y="552" type="line"/>
      <point x="439" y="555" type="line"/>
      <point x="447" y="28" type="line" smooth="yes"/>
      <point x="447" y="9"/>
      <point x="455" y="0"/>
      <point x="472" y="0" type="curve"/>
      <point x="486" y="0"/>
      <point x="497" y="8"/>
      <point x="505" y="25" type="curve" smooth="yes"/>
      <point x="778" y="618" type="line" smooth="yes"/>
      <point x="786" y="635"/>
      <point x="776" y="650"/>
      <point x="758" y="650" type="curve" smooth="yes"/>
      <point x="744" y="650"/>
      <point x="733" y="640"/>
      <point x="726" y="625" type="curve" smooth="yes"/>
      <point x="484" y="89" type="line"/>
      <point x="492" y="86" type="line"/>
      <point x="484" y="625" type="line" smooth="yes"/>
      <point x="484" y="640"/>
      <point x="476" y="650"/>
      <point x="459" y="650" type="curve" smooth="yes"/>
      <point x="444" y="650"/>
      <point x="433" y="640"/>
      <point x="426" y="625" type="curve" smooth="yes"/>
      <point x="185" y="89" type="line"/>
      <point x="193" y="86" type="line"/>
      <point x="185" y="625" type="line" smooth="yes"/>
      <point x="185" y="640"/>
      <point x="175" y="650"/>
      <point x="160" y="650" type="curve" smooth="yes"/>
      <point x="145" y="650"/>
      <point x="135" y="640"/>
      <point x="135" y="624" type="curve" smooth="yes"/>
      <point x="148" y="28" type="line" smooth="yes"/>
      <point x="148" y="9"/>
      <point x="156" y="0"/>
    </contour>
  </outline>
</glyph>
<glyph name="X" format="2">
  <advance width="479"/>
  <unicode hex="0058"/>
  <outline>
    <contour>
      <point x="-7" y="6" type="curve" smooth="yes"/>
      <point x="4" y="-3"/>
      <point x="21" y="-3"/>
      <point x="34" y="12" type="curve" smooth="yes"/>
      <point x="537" y="609" type="line" smooth="yes"/>
      <point x="550" y="624"/>
      <point x="546" y="638"/>
      <point x="537" y="645" type="curve" smooth="yes"/>
      <point x="527" y="653"/>
      <point x="508" y="652"/>
      <point x="495" y="637" type="curve" smooth="yes"/>
      <point x="-10" y="38" type="line" smooth="yes"/>
      <point x="-20" y="26"/>
      <point x="-16" y="13"/>
    </contour>
    <contour>
      <point x="382" y="3" type="curve" smooth="yes"/>
      <point x="392" y="8"/>
      <point x="397" y="20"/>
      <point x="392" y="35" type="curve" smooth="yes"/>
      <point x="187" y="631" type="line" smooth="yes"/>
      <point x="180" y="650"/>
      <point x="161" y="654"/>
      <point x="149" y="649" type="curve" smooth="yes"/>
      <point x="137" y="645"/>
      <point x="134" y="632"/>
      <point x="140" y="614" type="curve" smooth="yes"/>
      <point x="344" y="21" type="line" smooth="yes"/>
      <point x="351" y="2"/>
      <point x="369" y="-3"/>
    </contour>
  </outline>
</glyph>
<glyph name="Y" format="2">
  <advance width="473"/>
  <unicode hex="0059"/>
  <outline>
    <contour>
      <point x="281" y="257" type="line"/>
      <point x="314" y="309" type="line"/>
      <point x="176" y="631" type="line" smooth="yes"/>
      <point x="168" y="650"/>
      <point x="150" y="654"/>
      <point x="138" y="649" type="curve" smooth="yes"/>
      <point x="126" y="645"/>
      <point x="121" y="632"/>
      <point x="129" y="614" type="curve" smooth="yes"/>
    </contour>
    <contour>
      <point x="112" y="6" type="curve" smooth="yes"/>
      <point x="123" y="-3"/>
      <point x="141" y="-4"/>
      <point x="151" y="11" type="curve" smooth="yes"/>
      <point x="541" y="609" type="line" smooth="yes"/>
      <point x="551" y="624"/>
      <point x="547" y="638"/>
      <point x="538" y="645" type="curve" smooth="yes"/>
      <point x="527" y="653"/>
      <point x="508" y="650"/>
      <point x="498" y="635" type="curve" smooth="yes"/>
      <point x="108" y="38" type="line" smooth="yes"/>
      <point x="100" y="26"/>
      <point x="102" y="13"/>
    </contour>
  </outline>
</glyph>
<glyph name="Z" format="2">
  <advance width="551"/>
  <unicode hex="005A"/>
  <outline>
    <contour>
      <point x="42" y="0" type="curve" smooth="yes"/>
      <point x="418" y="0" type="line" smooth="yes"/>
      <point x="438" y="0"/>
      <point x="444" y="11"/>
      <point x="444" y="23" type="curve" smooth="yes"/>
      <point x="444" y="35"/>
      <point x="438" y="46"/>
      <point x="418" y="46" type="curve" smooth="yes"/>
      <point x="91" y="46" type="line"/>
      <point x="567" y="609" type="line" smooth="yes"/>
      <point x="580" y="624"/>
      <point x="576" y="638"/>
      <point x="569" y="644" type="curve" smooth="yes"/>
      <point x="564" y="648"/>
      <point x="559.0" y="650.0"/>
      <point x="550" y="650.0" type="curve" smooth="yes"/>
      <point x="191" y="650" type="line" smooth="yes"/>
      <point x="171" y="650"/>
      <point x="165" y="639"/>
      <point x="165" y="627" type="curve" smooth="yes"/>
      <point x="165" y="615"/>
      <point x="171" y="604"/>
      <point x="191" y="604" type="curve" smooth="yes"/>
      <point x="499" y="604" type="line"/>
      <point x="20" y="38" type="line" smooth="yes"/>
      <point x="13" y="29"/>
      <point x="12.0" y="16.0"/>
      <point x="18" y="8" type="curve" smooth="yes"/>
      <point x="21.0" y="4.0"/>
      <point x="31" y="0"/>
    </contour>
  </outline>
</glyph>
<glyph name="bracketleft" format="2">
	<advance width="329"/>
	<unicode hex="005B"/>
	<outline>
		<contour>
			<point x="202" y="617" type="line" smooth="yes"/>
			<point x="206" y="634"/>
			<point x="207" y="648"/>
			<point x="186" y="650" type="curve" smooth="yes"/>
			<point x="165" y="651"/>
			<point x="156" y="641"/>
			<point x="152" y="625" type="curve" smooth="yes"/>
			<point x="-72" y="-272" type="line" smooth="yes"/>
			<point x="-76" y="-286"/>
			<point x="-69" y="-300"/>
			<point x="-49" y="-300" type="curve" smooth="yes"/>
			<point x="-27" y="-300"/>
			<point x="-24" y="-285"/>
			<point x="-21" y="-275" type="curve" smooth="yes"/>
		</contour>
		<contour>
			<point x="-50" y="-300" type="line"/>
			<point x="99" y="-300" type="line" smooth="yes"/>
			<point x="116" y="-300"/>
			<point x="125" y="-288"/>
			<point x="125" y="-277" type="curve" smooth="yes"/>
			<point x="125" y="-266"/>
			<point x="117" y="-255"/>
			<point x="99" y="-255" type="curve" smooth="yes"/>
			<point x="-23" y="-255" type="line"/>
		</contour>
		<contour>
			<point x="192" y="605" type="line"/>
			<point x="323" y="605" type="line" smooth="yes"/>
			<point x="340" y="605"/>
			<point x="349" y="616"/>
			<point x="350" y="627" type="curve" smooth="yes"/>
			<point x="351" y="638"/>
			<point x="342" y="650"/>
			<point x="323" y="650" type="curve" smooth="yes"/>
			<point x="185" y="650" type="line"/>
		</contour>
	</outline>
</glyph>
<glyph name="backslash" format="2">
	<advance width="647"/>
	<unicode hex="005C"/>
	<outline>
		<contour>
			<point x="157" y="614" type="curve" smooth="yes"/>
			<point x="465" y="18" type="line" smooth="yes"/>
			<point x="472" y="4"/>
			<point x="483" y="-1"/>
			<point x="494" y="0" type="curve" smooth="yes"/>
			<point x="510" y="1"/>
			<point x="523" y="14"/>
			<point x="514" y="32" type="curve" smooth="yes"/>
			<point x="206" y="629" type="line" smooth="yes"/>
			<point x="198" y="645"/>
			<point x="186" y="650"/>
			<point x="175" y="650" type="curve" smooth="yes"/>
			<point x="160" y="649"/>
			<point x="146" y="635"/>
		</contour>
	</outline>
</glyph>
<glyph name="bracketright" format="2">
	<advance width="329"/>
	<unicode hex="005D"/>
	<outline>
		<contour>
			<point x="75" y="-267" type="line" smooth="yes"/>
			<point x="71" y="-284"/>
			<point x="70" y="-298"/>
			<point x="91" y="-300" type="curve" smooth="yes"/>
			<point x="112" y="-301"/>
			<point x="121" y="-291"/>
			<point x="125" y="-275" type="curve" smooth="yes"/>
			<point x="349" y="622" type="line" smooth="yes"/>
			<point x="353" y="636"/>
			<point x="346" y="650"/>
			<point x="326" y="650" type="curve" smooth="yes"/>
			<point x="304" y="650"/>
			<point x="301" y="635"/>
			<point x="298" y="625" type="curve" smooth="yes"/>
		</contour>
		<contour>
			<point x="327" y="650" type="line"/>
			<point x="178" y="650" type="line" smooth="yes"/>
			<point x="161" y="650"/>
			<point x="152" y="638"/>
			<point x="152" y="627" type="curve" smooth="yes"/>
			<point x="152" y="616"/>
			<point x="160" y="605"/>
			<point x="178" y="605" type="curve" smooth="yes"/>
			<point x="300" y="605" type="line"/>
		</contour>
		<contour>
			<point x="85" y="-255" type="line"/>
			<point x="-46" y="-255" type="line" smooth="yes"/>
			<point x="-63" y="-255"/>
			<point x="-72" y="-266"/>
			<point x="-73" y="-277" type="curve" smooth="yes"/>
			<point x="-74" y="-288"/>
			<point x="-65" y="-300"/>
			<point x="-46" y="-300" type="curve" smooth="yes"/>
			<point x="92" y="-300" type="line"/>
		</contour>
	</outline>
</glyph>
<glyph name="asciicircum" format="2">
	<advance width="411"/>
	<unicode hex="005E"/>
	<outline>
		<contour>
			<point x="302" y="607" type="line" smooth="yes"/>
			<point x="316" y="619"/>
			<point x="314" y="634"/>
			<point x="305" y="642" type="curve" smooth="yes"/>
			<point x="296" y="651"/>
			<point x="280" y="654"/>
			<point x="266" y="642" type="curve" smooth="yes"/>
			<point x="133" y="531" type="line" smooth="yes"/>
			<point x="121" y="521"/>
			<point x="123" y="506"/>
			<point x="131" y="497" type="curve" smooth="yes"/>
			<point x="140" y="488"/>
			<point x="155" y="484"/>
			<point x="171" y="497" type="curve" smooth="yes"/>
		</contour>
		<contour>
			<point x="306" y="641" type="line"/>
			<point x="267" y="609" type="line"/>
			<point x="360" y="499" type="line" smooth="yes"/>
			<point x="371" y="486"/>
			<point x="386" y="488"/>
			<point x="395" y="496" type="curve" smooth="yes"/>
			<point x="405" y="504"/>
			<point x="408" y="520"/>
			<point x="398" y="532" type="curve" smooth="yes"/>
		</contour>
	</outline>
</glyph>
<glyph name="underscore" format="2">
  <advance width="438"/>
  <unicode hex="005F"/>
  <outline>
    <contour>
      <point x="53" y="-80" type="curve" smooth="yes"/>
      <point x="301" y="-80" type="line" smooth="yes"/>
      <point x="320" y="-80"/>
      <point x="332" y="-72"/>
      <point x="332" y="-57" type="curve" smooth="yes"/>
      <point x="332" y="-42"/>
      <point x="321" y="-34"/>
      <point x="303" y="-34" type="curve" smooth="yes"/>
      <point x="55" y="-34" type="line" smooth="yes"/>
      <point x="36" y="-34"/>
      <point x="24" y="-42"/>
      <point x="24" y="-57" type="curve" smooth="yes"/>
      <point x="24" y="-72"/>
      <point x="35" y="-80"/>
    </contour>
  </outline>
</glyph>
<glyph name="grave" format="2">
	<advance width="255"/>
	<unicode hex="0060"/>
	<outline>
		<contour>
			<point x="218" y="683" type="line" smooth="yes"/>
			<point x="212" y="696"/>
			<point x="199" y="701"/>
			<point x="188" y="701" type="curve" smooth="yes"/>
			<point x="172" y="700"/>
			<point x="157" y="686"/>
			<point x="170" y="664" type="curve" smooth="yes"/>
			<point x="224" y="572" type="line" smooth="yes"/>
			<point x="233" y="557"/>
			<point x="246" y="554"/>
			<point x="255" y="559" type="curve" smooth="yes"/>
			<point x="263" y="563"/>
			<point x="266" y="573"/>
			<point x="260" y="587" type="curve" smooth="yes"/>
		</contour>
	</outline>
</glyph>
<glyph name="a" format="2">
  <advance width="310"/>
  <unicode hex="0061"/>
  <outline>
    <contour>
      <point x="92.0" y="0.0" type="curve" smooth="yes"/>
      <point x="163" y="0"/>
      <point x="215" y="87"/>
      <point x="256" y="228" type="curve" smooth="yes"/>
      <point x="276.0" y="297.0"/>
      <point x="255.0" y="350.0"/>
      <point x="192" y="350" type="curve" smooth="yes"/>
      <point x="112" y="350"/>
      <point x="45" y="276"/>
      <point x="17" y="156" type="curve" smooth="yes"/>
      <point x="-2.0" y="76.0"/>
      <point x="16.0" y="0"/>
    </contour>
    <contour>
      <point x="102" y="45.0" type="curve" smooth="yes"/>
      <point x="62.0" y="45.0"/>
      <point x="51" y="87"/>
      <point x="71" y="169" type="curve" smooth="yes"/>
      <point x="89" y="247"/>
      <point x="138" y="305.0"/>
      <point x="184" y="305.0" type="curve" smooth="yes"/>
      <point x="230" y="305.0"/>
      <point x="247" y="281"/>
      <point x="235" y="234" type="curve" smooth="yes"/>
      <point x="209" y="126"/>
      <point x="152" y="45.0"/>
    </contour>
    <contour>
      <point x="203" y="0" type="curve" smooth="yes"/>
      <point x="228" y="0"/>
      <point x="231" y="14"/>
      <point x="236" y="32" type="curve" smooth="yes"/>
      <point x="309" y="322" type="line" smooth="yes"/>
      <point x="313" y="338"/>
      <point x="309" y="350"/>
      <point x="292" y="350" type="curve" smooth="yes"/>
      <point x="273" y="350"/>
      <point x="263" y="343"/>
      <point x="258" y="325" type="curve" smooth="yes"/>
      <point x="185" y="35" type="line" smooth="yes"/>
      <point x="181" y="18"/>
      <point x="181" y="0"/>
    </contour>
  </outline>
</glyph>
<glyph name="b" format="2">
  <advance width="341"/>
  <unicode hex="0062"/>
  <outline>
    <contour>
      <point x="37" y="0" type="curve" smooth="yes"/>
      <point x="62" y="0"/>
      <point x="66" y="14"/>
      <point x="70" y="32" type="curve" smooth="yes"/>
      <point x="218" y="622" type="line" smooth="yes"/>
      <point x="222" y="638"/>
      <point x="218" y="650"/>
      <point x="201" y="650" type="curve" smooth="yes"/>
      <point x="182" y="650"/>
      <point x="172" y="643"/>
      <point x="167" y="625" type="curve" smooth="yes"/>
      <point x="19" y="35" type="line" smooth="yes"/>
      <point x="15" y="18"/>
      <point x="15" y="0"/>
    </contour>
    <contour>
      <point x="127" y="0" type="curve" smooth="yes"/>
      <point x="207" y="0"/>
      <point x="274" y="74"/>
      <point x="301" y="182" type="curve" smooth="yes"/>
      <point x="327" y="286"/>
      <point x="294" y="354"/>
      <point x="227" y="354" type="curve" smooth="yes"/>
      <point x="160" y="354"/>
      <point x="101" y="285"/>
      <point x="73" y="172" type="curve" smooth="yes"/>
      <point x="46" y="66"/>
      <point x="67" y="0"/>
    </contour>
    <contour>
      <point x="138" y="45" type="curve" smooth="yes"/>
      <point x="98" y="45"/>
      <point x="84" y="85"/>
      <point x="103" y="163" type="curve" smooth="yes"/>
      <point x="124" y="248"/>
      <point x="168" y="309"/>
      <point x="216" y="309" type="curve" smooth="yes"/>
      <point x="256" y="309"/>
      <point x="270" y="269"/>
      <point x="251" y="191" type="curve" smooth="yes"/>
      <point x="230" y="106"/>
      <point x="186" y="45"/>
    </contour>
  </outline>
</glyph>
<glyph name="c" format="2">
  <advance width="323"/>
  <unicode hex="0063"/>
  <outline>
    <contour>
      <point x="120" y="0" type="curve" smooth="yes"/>
      <point x="188" y="0"/>
      <point x="246" y="49"/>
      <point x="271" y="112" type="curve" smooth="yes"/>
      <point x="278" y="129"/>
      <point x="267" y="141"/>
      <point x="257" y="145" type="curve" smooth="yes"/>
      <point x="248" y="149"/>
      <point x="231" y="145"/>
      <point x="225" y="131" type="curve" smooth="yes"/>
      <point x="204" y="82"/>
      <point x="161" y="45"/>
      <point x="129" y="45" type="curve" smooth="yes"/>
      <point x="86" y="45"/>
      <point x="74" y="88"/>
      <point x="96" y="173" type="curve" smooth="yes"/>
      <point x="115" y="251"/>
      <point x="162" y="309"/>
      <point x="206" y="309" type="curve" smooth="yes"/>
      <point x="231" y="309"/>
      <point x="242" y="289"/>
      <point x="242" y="265" type="curve" smooth="yes"/>
      <point x="242" y="252"/>
      <point x="259" y="249"/>
      <point x="273" y="254" type="curve" smooth="yes"/>
      <point x="285" y="258"/>
      <point x="290" y="271"/>
      <point x="288" y="284" type="curve" smooth="yes"/>
      <point x="281" y="324"/>
      <point x="261" y="354"/>
      <point x="217" y="354" type="curve" smooth="yes"/>
      <point x="132" y="354"/>
      <point x="70" y="280"/>
      <point x="40" y="160" type="curve" smooth="yes"/>
      <point x="17" y="68"/>
      <point x="51" y="0"/>
    </contour>
  </outline>
</glyph>
<glyph name="d" format="2">
	<advance width="399"/>
	<unicode hex="0064"/>
	<outline>
		<contour>
			<point x="303" y="625" type="curve" smooth="yes"/>
			<point x="185" y="155" type="line" smooth="yes"/>
			<point x="168" y="88"/>
			<point x="163" y="0"/>
			<point x="233" y="0" type="curve" smooth="yes"/>
			<point x="275" y="0"/>
			<point x="308" y="47"/>
			<point x="332" y="77" type="curve" smooth="yes"/>
			<point x="352" y="103"/>
			<point x="355" y="109"/>
			<point x="356" y="117" type="curve" smooth="yes"/>
			<point x="357" y="132"/>
			<point x="346" y="141"/>
			<point x="335" y="143" type="curve" smooth="yes"/>
			<point x="323" y="145"/>
			<point x="315" y="134"/>
			<point x="313" y="131" type="curve" smooth="yes"/>
			<point x="298" y="110" type="line" smooth="yes"/>
			<point x="283" y="89"/>
			<point x="252" y="46"/>
			<point x="235" y="46" type="curve" smooth="yes"/>
			<point x="216" y="46"/>
			<point x="227" y="117"/>
			<point x="231" y="133" type="curve" smooth="yes"/>
			<point x="354" y="622" type="line" smooth="yes"/>
			<point x="358" y="638"/>
			<point x="354" y="650"/>
			<point x="337" y="650" type="curve" smooth="yes"/>
			<point x="318" y="650"/>
			<point x="308" y="643"/>
		</contour>
		<contour>
			<point x="163" y="354" type="curve" smooth="yes"/>
			<point x="73" y="354"/>
			<point x="17" y="275"/>
			<point x="-12" y="160" type="curve" smooth="yes"/>
			<point x="-31" y="84"/>
			<point x="1" y="0"/>
			<point x="74" y="0" type="curve" smooth="yes"/>
			<point x="160" y="0"/>
			<point x="209" y="93"/>
			<point x="229" y="170" type="curve" smooth="yes"/>
			<point x="249" y="248"/>
			<point x="246" y="354"/>
		</contour>
		<contour>
			<point x="152" y="308" type="curve" smooth="yes"/>
			<point x="206" y="308"/>
			<point x="190" y="221"/>
			<point x="180" y="182" type="curve" smooth="yes"/>
			<point x="167" y="129"/>
			<point x="125" y="45"/>
			<point x="86" y="45" type="curve" smooth="yes"/>
			<point x="30" y="45"/>
			<point x="27" y="113"/>
			<point x="42" y="173" type="curve" smooth="yes"/>
			<point x="56" y="230"/>
			<point x="105" y="308"/>
		</contour>
	</outline>
</glyph>
<glyph name="e" format="2">
	<advance width="291"/>
	<unicode hex="0065"/>
	<outline>
		<contour>
			<point x="74" y="0" type="curve" smooth="yes"/>
			<point x="142" y="0"/>
			<point x="194" y="49"/>
			<point x="219" y="112" type="curve" smooth="yes"/>
			<point x="226" y="129"/>
			<point x="215" y="141"/>
			<point x="205" y="145" type="curve" smooth="yes"/>
			<point x="196" y="149"/>
			<point x="179" y="145"/>
			<point x="173" y="131" type="curve" smooth="yes"/>
			<point x="153" y="83"/>
			<point x="116" y="45"/>
			<point x="86" y="45" type="curve" smooth="yes"/>
			<point x="30" y="45"/>
			<point x="27" y="113"/>
			<point x="42" y="173" type="curve" smooth="yes"/>
			<point x="56" y="230"/>
			<point x="105" y="308"/>
			<point x="152" y="308" type="curve" smooth="yes"/>
			<point x="169" y="308"/>
			<point x="185" y="300"/>
			<point x="185" y="287" type="curve" smooth="yes"/>
			<point x="185" y="266"/>
			<point x="144" y="239"/>
			<point x="95" y="210" type="curve"/>
			<point x="20" y="170" type="line"/>
			<point x="11" y="109" type="line"/>
			<point x="123" y="168" type="line"/>
			<point x="163" y="191"/>
			<point x="235" y="233"/>
			<point x="235" y="290" type="curve" smooth="yes"/>
			<point x="235" y="328"/>
			<point x="205" y="354"/>
			<point x="163" y="354" type="curve" smooth="yes"/>
			<point x="73" y="354"/>
			<point x="17" y="275"/>
			<point x="-12" y="160" type="curve" smooth="yes"/>
			<point x="-31" y="84"/>
			<point x="1" y="0"/>
		</contour>
	</outline>
</glyph>
<glyph name="f" format="2">
  <advance width="205"/>
  <unicode hex="0066"/>
  <outline>
    <contour>
      <point x="47" y="305" type="curve" smooth="yes"/>
      <point x="205" y="305" type="line" smooth="yes"/>
      <point x="225" y="305"/>
      <point x="231" y="316"/>
      <point x="231" y="328" type="curve" smooth="yes"/>
      <point x="231" y="340"/>
      <point x="225" y="350"/>
      <point x="205" y="350" type="curve" smooth="yes"/>
      <point x="47" y="350" type="line" smooth="yes"/>
      <point x="27" y="350"/>
      <point x="21" y="340"/>
      <point x="21" y="328" type="curve" smooth="yes"/>
      <point x="21" y="316"/>
      <point x="27" y="305"/>
    </contour>
    <contour>
      <point x="27" y="0" type="curve" smooth="yes"/>
      <point x="49" y="0"/>
      <point x="55" y="13"/>
      <point x="60" y="32" type="curve" smooth="yes"/>
      <point x="180" y="514" type="line" smooth="yes"/>
      <point x="195" y="574"/>
      <point x="213" y="604"/>
      <point x="234" y="604" type="curve" smooth="yes"/>
      <point x="246" y="604"/>
      <point x="257" y="589"/>
      <point x="268" y="560" type="curve" smooth="yes"/>
      <point x="274" y="544"/>
      <point x="287" y="539"/>
      <point x="301" y="545" type="curve" smooth="yes"/>
      <point x="315" y="551"/>
      <point x="320" y="563"/>
      <point x="315" y="578" type="curve" smooth="yes"/>
      <point x="298" y="625"/>
      <point x="272" y="650"/>
      <point x="238" y="650" type="curve" smooth="yes"/>
      <point x="188" y="650"/>
      <point x="152" y="608"/>
      <point x="131" y="524" type="curve" smooth="yes"/>
      <point x="10" y="38" type="line" smooth="yes"/>
      <point x="6" y="22"/>
      <point x="4" y="0"/>
    </contour>
  </outline>
</glyph>
<glyph name="g" format="2">
	<advance width="310"/>
	<unicode hex="0067"/>
	<outline>
		<contour>
			<point x="-18" y="-300" type="curve" smooth="yes"/>
			<point x="23" y="-300"/>
			<point x="61" y="-289"/>
			<point x="90" y="-267" type="curve" smooth="yes"/>
			<point x="131" y="-235"/>
			<point x="157" y="-164"/>
			<point x="175" y="-91" type="curve" smooth="yes"/>
			<point x="280" y="328" type="line" smooth="yes"/>
			<point x="283" y="340"/>
			<point x="272" y="349"/>
			<point x="258" y="350" type="curve" smooth="yes"/>
			<point x="244" y="350"/>
			<point x="232" y="341"/>
			<point x="229" y="331" type="curve" smooth="yes"/>
			<point x="124" y="-87" type="line" smooth="yes"/>
			<point x="112" y="-135"/>
			<point x="94" y="-200"/>
			<point x="60" y="-226" type="curve" smooth="yes"/>
			<point x="40" y="-244"/>
			<point x="10" y="-250"/>
			<point x="-14" y="-250" type="curve" smooth="yes"/>
			<point x="-43" y="-250"/>
			<point x="-53" y="-240"/>
			<point x="-65" y="-231" type="curve" smooth="yes"/>
			<point x="-77" y="-222"/>
			<point x="-90" y="-220"/>
			<point x="-101" y="-229" type="curve" smooth="yes"/>
			<point x="-112" y="-238"/>
			<point x="-115" y="-253"/>
			<point x="-103" y="-263" type="curve" smooth="yes"/>
			<point x="-84" y="-280"/>
			<point x="-64" y="-300"/>
		</contour>
		<contour>
			<point x="74" y="0" type="curve" smooth="yes"/>
			<point x="160" y="0"/>
			<point x="209" y="93"/>
			<point x="229" y="170" type="curve" smooth="yes"/>
			<point x="249" y="248"/>
			<point x="246" y="354"/>
			<point x="163" y="354" type="curve" smooth="yes"/>
			<point x="73" y="354"/>
			<point x="17" y="275"/>
			<point x="-12" y="160" type="curve" smooth="yes"/>
			<point x="-31" y="84"/>
			<point x="1" y="0"/>
		</contour>
		<contour>
			<point x="86" y="45" type="curve" smooth="yes"/>
			<point x="30" y="45"/>
			<point x="27" y="113"/>
			<point x="42" y="173" type="curve" smooth="yes"/>
			<point x="56" y="230"/>
			<point x="105" y="308"/>
			<point x="152" y="308" type="curve" smooth="yes"/>
			<point x="206" y="308"/>
			<point x="190" y="221"/>
			<point x="180" y="182" type="curve" smooth="yes"/>
			<point x="167" y="129"/>
			<point x="125" y="45"/>
		</contour>
	</outline>
</glyph>
<glyph name="h" format="2">
  <advance width="374"/>
  <unicode hex="0068"/>
  <outline>
    <contour>
      <point x="259" y="-1" type="curve" smooth="yes"/>
      <point x="284" y="-1"/>
      <point x="287" y="13"/>
      <point x="292" y="31" type="curve" smooth="yes"/>
      <point x="330" y="183" type="line" smooth="yes"/>
      <point x="360" y="301"/>
      <point x="346" y="354"/>
      <point x="282" y="354" type="curve" smooth="yes"/>
      <point x="230" y="354"/>
      <point x="157" y="290"/>
      <point x="110" y="209" type="curve"/>
      <point x="86" y="96" type="line"/>
      <point x="105" y="168"/>
      <point x="225" y="308"/>
      <point x="270" y="308" type="curve" smooth="yes"/>
      <point x="297" y="308"/>
      <point x="300" y="270"/>
      <point x="280" y="188" type="curve" smooth="yes"/>
      <point x="241" y="34" type="line" smooth="yes"/>
      <point x="237" y="17"/>
      <point x="237" y="-1"/>
    </contour>
    <contour>
      <point x="37" y="0" type="curve" smooth="yes"/>
      <point x="62" y="0"/>
      <point x="65" y="14"/>
      <point x="70" y="32" type="curve" smooth="yes"/>
      <point x="218" y="622" type="line" smooth="yes"/>
      <point x="222" y="638"/>
      <point x="218" y="649"/>
      <point x="201" y="650" type="curve" smooth="yes"/>
      <point x="182" y="651"/>
      <point x="172" y="643"/>
      <point x="167" y="625" type="curve" smooth="yes"/>
      <point x="19" y="35" type="line" smooth="yes"/>
      <point x="15" y="18"/>
      <point x="15" y="0"/>
    </contour>
  </outline>
</glyph>
<glyph name="i" format="2">
  <advance width="163"/>
  <unicode hex="0069"/>
  <outline>
    <contour>
      <point x="37" y="0" type="curve" smooth="yes"/>
      <point x="62" y="0"/>
      <point x="65" y="14"/>
      <point x="70" y="32" type="curve" smooth="yes"/>
      <point x="143" y="322" type="line" smooth="yes"/>
      <point x="147" y="338"/>
      <point x="143" y="350"/>
      <point x="126" y="350" type="curve" smooth="yes"/>
      <point x="107" y="350"/>
      <point x="97" y="343"/>
      <point x="92" y="325" type="curve" smooth="yes"/>
      <point x="19" y="35" type="line" smooth="yes"/>
      <point x="15" y="18"/>
      <point x="15" y="0"/>
    </contour>
    <contour>
      <point x="154" y="441" type="curve" smooth="yes"/>
      <point x="169" y="441"/>
      <point x="182" y="454"/>
      <point x="182" y="468" type="curve" smooth="yes"/>
      <point x="182" y="483"/>
      <point x="168" y="494"/>
      <point x="154" y="494" type="curve" smooth="yes"/>
      <point x="138" y="494"/>
      <point x="127" y="481"/>
      <point x="127" y="468" type="curve" smooth="yes"/>
      <point x="127" y="454"/>
      <point x="139" y="441"/>
    </contour>
  </outline>
</glyph>
<glyph name="j" format="2">
  <advance width="163"/>
  <unicode hex="006A"/>
  <outline>
    <contour>
      <point x="153" y="441" type="curve" smooth="yes"/>
      <point x="168" y="441"/>
      <point x="181" y="454"/>
      <point x="181" y="468" type="curve" smooth="yes"/>
      <point x="181" y="483"/>
      <point x="167" y="494"/>
      <point x="153" y="494" type="curve" smooth="yes"/>
      <point x="137" y="494"/>
      <point x="126" y="481"/>
      <point x="126" y="468" type="curve" smooth="yes"/>
      <point x="126" y="454"/>
      <point x="138" y="441"/>
    </contour>
    <contour>
      <point x="-84" y="-300" type="curve" smooth="yes"/>
      <point x="-38" y="-300"/>
      <point x="-6" y="-273"/>
      <point x="7" y="-220" type="curve" smooth="yes"/>
      <point x="143" y="322" type="line" smooth="yes"/>
      <point x="147" y="338"/>
      <point x="143" y="350"/>
      <point x="126" y="350" type="curve" smooth="yes"/>
      <point x="107" y="350"/>
      <point x="97" y="343"/>
      <point x="92" y="325" type="curve" smooth="yes"/>
      <point x="-43" y="-208" type="line" smooth="yes"/>
      <point x="-51" y="-239"/>
      <point x="-63" y="-255"/>
      <point x="-80" y="-255" type="curve" smooth="yes"/>
      <point x="-93" y="-255"/>
      <point x="-104" y="-240.0"/>
      <point x="-109" y="-225.0" type="curve" smooth="yes"/>
      <point x="-114" y="-209.0"/>
      <point x="-123" y="-206"/>
      <point x="-138" y="-210" type="curve" smooth="yes"/>
      <point x="-155" y="-215"/>
      <point x="-162" y="-225"/>
      <point x="-156" y="-243" type="curve" smooth="yes"/>
      <point x="-144" y="-278"/>
      <point x="-116" y="-300"/>
    </contour>
  </outline>
</glyph>
<glyph name="k" format="2">
  <advance width="366"/>
  <unicode hex="006B"/>
  <outline>
    <contour>
      <point x="37" y="0" type="curve" smooth="yes"/>
      <point x="62" y="0"/>
      <point x="66" y="14"/>
      <point x="70" y="32" type="curve" smooth="yes"/>
      <point x="218" y="622" type="line" smooth="yes"/>
      <point x="222" y="638"/>
      <point x="218" y="649"/>
      <point x="201" y="650" type="curve" smooth="yes"/>
      <point x="182" y="651"/>
      <point x="172" y="643"/>
      <point x="167" y="625" type="curve" smooth="yes"/>
      <point x="19" y="35" type="line" smooth="yes"/>
      <point x="15" y="18"/>
      <point x="15" y="0"/>
    </contour>
    <contour>
      <point x="257" y="0" type="curve" smooth="yes"/>
      <point x="280" y="0"/>
      <point x="296" y="19"/>
      <point x="280" y="42" type="curve" smooth="yes"/>
      <point x="111" y="288" type="line"/>
      <point x="94" y="226" type="line"/>
      <point x="242" y="8" type="line" smooth="yes"/>
      <point x="246" y="2"/>
      <point x="252" y="0"/>
    </contour>
    <contour>
      <point x="160" y="186" type="curve" smooth="yes"/>
      <point x="253" y="186"/>
      <point x="321" y="237"/>
      <point x="321" y="307" type="curve" smooth="yes"/>
      <point x="321" y="336"/>
      <point x="304" y="354"/>
      <point x="276" y="354" type="curve" smooth="yes"/>
      <point x="189" y="354"/>
      <point x="113" y="287"/>
      <point x="113" y="243" type="curve" smooth="yes"/>
      <point x="113" y="210"/>
      <point x="133" y="186"/>
    </contour>
    <contour>
      <point x="166" y="229" type="curve" smooth="yes"/>
      <point x="156" y="229"/>
      <point x="148" y="232"/>
      <point x="148.0" y="239" type="curve" smooth="yes"/>
      <point x="148" y="264"/>
      <point x="217" y="303"/>
      <point x="257" y="303" type="curve" smooth="yes"/>
      <point x="264" y="303"/>
      <point x="268" y="299"/>
      <point x="268" y="292" type="curve" smooth="yes"/>
      <point x="268" y="260"/>
      <point x="221" y="229"/>
    </contour>
  </outline>
</glyph>
<glyph name="l" format="2">
  <advance width="248"/>
  <unicode hex="006C"/>
  <outline>
    <contour>
      <point x="94" y="0" type="curve" smooth="yes"/>
      <point x="122" y="0"/>
      <point x="156" y="26"/>
      <point x="196" y="77" type="curve" smooth="yes"/>
      <point x="216" y="103"/>
      <point x="220" y="109"/>
      <point x="220" y="120" type="curve" smooth="yes"/>
      <point x="220" y="134"/>
      <point x="212" y="143"/>
      <point x="200" y="143" type="curve" smooth="yes"/>
      <point x="187" y="143"/>
      <point x="180" y="134"/>
      <point x="162" y="110" type="curve" smooth="yes"/>
      <point x="131" y="67"/>
      <point x="110" y="45"/>
      <point x="99" y="45" type="curve" smooth="yes"/>
      <point x="83" y="45"/>
      <point x="82" y="79"/>
      <point x="95" y="133" type="curve" smooth="yes"/>
      <point x="218" y="622" type="line" smooth="yes"/>
      <point x="222" y="638"/>
      <point x="218" y="650"/>
      <point x="201" y="650" type="curve" smooth="yes"/>
      <point x="182" y="650"/>
      <point x="172" y="643"/>
      <point x="167" y="625" type="curve" smooth="yes"/>
      <point x="46" y="144" type="line" smooth="yes"/>
      <point x="24" y="55"/>
      <point x="43" y="0"/>
    </contour>
  </outline>
</glyph>
<glyph name="m" format="2">
  <advance width="545"/>
  <unicode hex="006D"/>
  <outline>
    <contour>
      <point x="229" y="-1" type="curve" smooth="yes"/>
      <point x="254" y="-1"/>
      <point x="257" y="13"/>
      <point x="262" y="31" type="curve" smooth="yes"/>
      <point x="300" y="183" type="line" smooth="yes"/>
      <point x="330" y="301"/>
      <point x="316" y="354"/>
      <point x="252" y="354" type="curve" smooth="yes"/>
      <point x="200" y="354"/>
      <point x="147" y="290"/>
      <point x="100" y="209" type="curve"/>
      <point x="76" y="96" type="line"/>
      <point x="95" y="168"/>
      <point x="195" y="308"/>
      <point x="240" y="308" type="curve" smooth="yes"/>
      <point x="267" y="308"/>
      <point x="271" y="270"/>
      <point x="250" y="188" type="curve" smooth="yes"/>
      <point x="211" y="34" type="line" smooth="yes"/>
      <point x="207" y="17"/>
      <point x="207" y="-1"/>
    </contour>
    <contour>
      <point x="27" y="0" type="curve" smooth="yes"/>
      <point x="52" y="0"/>
      <point x="55" y="14"/>
      <point x="60" y="32" type="curve" smooth="yes"/>
      <point x="133" y="322" type="line" smooth="yes"/>
      <point x="137" y="338"/>
      <point x="133" y="349"/>
      <point x="116" y="350" type="curve" smooth="yes"/>
      <point x="97" y="351"/>
      <point x="87" y="343"/>
      <point x="82" y="325" type="curve" smooth="yes"/>
      <point x="9" y="35" type="line" smooth="yes"/>
      <point x="5" y="18"/>
      <point x="5" y="0"/>
    </contour>
    <contour>
      <point x="430" y="-1" type="curve" smooth="yes"/>
      <point x="455" y="-1"/>
      <point x="458" y="13"/>
      <point x="463" y="31" type="curve" smooth="yes"/>
      <point x="501" y="183" type="line" smooth="yes"/>
      <point x="531" y="301"/>
      <point x="517" y="354"/>
      <point x="453" y="354" type="curve" smooth="yes"/>
      <point x="401" y="354"/>
      <point x="348" y="290"/>
      <point x="301" y="209" type="curve"/>
      <point x="277" y="96" type="line"/>
      <point x="296" y="168"/>
      <point x="396" y="308"/>
      <point x="441" y="308" type="curve" smooth="yes"/>
      <point x="468" y="308"/>
      <point x="472" y="270"/>
      <point x="451" y="188" type="curve" smooth="yes"/>
      <point x="412" y="34" type="line" smooth="yes"/>
      <point x="408" y="17"/>
      <point x="408" y="-1"/>
    </contour>
  </outline>
</glyph>
<glyph name="n" format="2">
  <advance width="365"/>
  <unicode hex="006E"/>
  <outline>
    <contour>
      <point x="249" y="-1" type="curve" smooth="yes"/>
      <point x="274" y="-1"/>
      <point x="277" y="13"/>
      <point x="282" y="31" type="curve" smooth="yes"/>
      <point x="320" y="183" type="line" smooth="yes"/>
      <point x="350" y="301"/>
      <point x="336" y="350"/>
      <point x="272" y="350" type="curve" smooth="yes"/>
      <point x="220" y="350"/>
      <point x="147" y="290"/>
      <point x="100" y="209" type="curve"/>
      <point x="76" y="96" type="line"/>
      <point x="95" y="168"/>
      <point x="215" y="304"/>
      <point x="260" y="304" type="curve" smooth="yes"/>
      <point x="287" y="304"/>
      <point x="290" y="270"/>
      <point x="270" y="188" type="curve" smooth="yes"/>
      <point x="231" y="34" type="line" smooth="yes"/>
      <point x="227" y="17"/>
      <point x="227" y="-1"/>
    </contour>
    <contour>
      <point x="27" y="0" type="curve" smooth="yes"/>
      <point x="52" y="0"/>
      <point x="55" y="14"/>
      <point x="60" y="32" type="curve" smooth="yes"/>
      <point x="133" y="322" type="line" smooth="yes"/>
      <point x="137" y="338"/>
      <point x="133" y="349"/>
      <point x="116" y="350" type="curve" smooth="yes"/>
      <point x="97" y="351"/>
      <point x="87" y="343"/>
      <point x="82" y="325" type="curve" smooth="yes"/>
      <point x="9" y="35" type="line" smooth="yes"/>
      <point x="5" y="18"/>
      <point x="5" y="0"/>
    </contour>
  </outline>
</glyph>
<glyph name="o" format="2">
  <advance width="336"/>
  <unicode hex="006F"/>
  <outline>
    <contour>
      <point x="117" y="0" type="curve" smooth="yes"/>
      <point x="197" y="0"/>
      <point x="264" y="74"/>
      <point x="291" y="182" type="curve" smooth="yes"/>
      <point x="317" y="286"/>
      <point x="284" y="354"/>
      <point x="217" y="354" type="curve" smooth="yes"/>
      <point x="137" y="354"/>
      <point x="70" y="280"/>
      <point x="43" y="172" type="curve" smooth="yes"/>
      <point x="17" y="68"/>
      <point x="50" y="0"/>
    </contour>
    <contour>
      <point x="128" y="45" type="curve" smooth="yes"/>
      <point x="88" y="45"/>
      <point x="74" y="85"/>
      <point x="93" y="163" type="curve" smooth="yes"/>
      <point x="114" y="248"/>
      <point x="158" y="309"/>
      <point x="206" y="309" type="curve" smooth="yes"/>
      <point x="246" y="309"/>
      <point x="260" y="269"/>
      <point x="241" y="191" type="curve" smooth="yes"/>
      <point x="220" y="106"/>
      <point x="176" y="45"/>
    </contour>
  </outline>
</glyph>
<glyph name="p" format="2">
  <advance width="346"/>
  <unicode hex="0070"/>
  <outline>
    <contour>
      <point x="-48" y="-300" type="curve" smooth="yes"/>
      <point x="-23" y="-300"/>
      <point x="-19" y="-286"/>
      <point x="-15" y="-268" type="curve" smooth="yes"/>
      <point x="133" y="322" type="line" smooth="yes"/>
      <point x="137" y="338"/>
      <point x="133" y="350"/>
      <point x="116" y="350" type="curve" smooth="yes"/>
      <point x="97" y="350"/>
      <point x="87" y="343"/>
      <point x="82" y="325" type="curve" smooth="yes"/>
      <point x="-66" y="-265" type="line" smooth="yes"/>
      <point x="-70" y="-282"/>
      <point x="-70" y="-300"/>
    </contour>
    <contour>
      <point x="63" y="172" type="curve" smooth="yes"/>
      <point x="37" y="68"/>
      <point x="50" y="0"/>
      <point x="117" y="0" type="curve" smooth="yes"/>
      <point x="197" y="0"/>
      <point x="264" y="74"/>
      <point x="291" y="182" type="curve" smooth="yes"/>
      <point x="317" y="286"/>
      <point x="284" y="354"/>
      <point x="217" y="354" type="curve" smooth="yes"/>
      <point x="137" y="354"/>
      <point x="90" y="280"/>
    </contour>
    <contour>
      <point x="93" y="163" type="curve" smooth="yes"/>
      <point x="114" y="248"/>
      <point x="158" y="309"/>
      <point x="206" y="309" type="curve" smooth="yes"/>
      <point x="246" y="309"/>
      <point x="260" y="269"/>
      <point x="241" y="191" type="curve" smooth="yes"/>
      <point x="220" y="106"/>
      <point x="176" y="45"/>
      <point x="128" y="45" type="curve" smooth="yes"/>
      <point x="88" y="45"/>
      <point x="74" y="85"/>
    </contour>
  </outline>
</glyph>
<glyph name="q" format="2">
	<advance width="325"/>
	<unicode hex="0071"/>
	<outline>
		<contour>
			<point x="228" y="325" type="curve" smooth="yes"/>
			<point x="110" y="-145" type="line" smooth="yes"/>
			<point x="93" y="-212"/>
			<point x="88" y="-300"/>
			<point x="158" y="-300" type="curve" smooth="yes"/>
			<point x="200" y="-300"/>
			<point x="233" y="-253"/>
			<point x="257" y="-223" type="curve" smooth="yes"/>
			<point x="277" y="-197"/>
			<point x="280" y="-191"/>
			<point x="281" y="-183" type="curve" smooth="yes"/>
			<point x="282" y="-168"/>
			<point x="271" y="-159"/>
			<point x="260" y="-157" type="curve" smooth="yes"/>
			<point x="248" y="-155"/>
			<point x="240" y="-166"/>
			<point x="238" y="-169" type="curve" smooth="yes"/>
			<point x="223" y="-190" type="line" smooth="yes"/>
			<point x="208" y="-211"/>
			<point x="177" y="-254"/>
			<point x="160" y="-254" type="curve" smooth="yes"/>
			<point x="141" y="-254"/>
			<point x="152" y="-183"/>
			<point x="156" y="-167" type="curve" smooth="yes"/>
			<point x="279" y="322" type="line" smooth="yes"/>
			<point x="283" y="338"/>
			<point x="279" y="350"/>
			<point x="262" y="350" type="curve" smooth="yes"/>
			<point x="243" y="350"/>
			<point x="233" y="343"/>
		</contour>
		<contour>
			<point x="163" y="354" type="curve" smooth="yes"/>
			<point x="73" y="354"/>
			<point x="17" y="275"/>
			<point x="-12" y="160" type="curve" smooth="yes"/>
			<point x="-31" y="84"/>
			<point x="1" y="0"/>
			<point x="74" y="0" type="curve" smooth="yes"/>
			<point x="160" y="0"/>
			<point x="209" y="93"/>
			<point x="229" y="170" type="curve" smooth="yes"/>
			<point x="249" y="248"/>
			<point x="246" y="354"/>
		</contour>
		<contour>
			<point x="152" y="308" type="curve" smooth="yes"/>
			<point x="206" y="308"/>
			<point x="190" y="221"/>
			<point x="180" y="182" type="curve" smooth="yes"/>
			<point x="167" y="129"/>
			<point x="125" y="45"/>
			<point x="86" y="45" type="curve" smooth="yes"/>
			<point x="30" y="45"/>
			<point x="27" y="113"/>
			<point x="42" y="173" type="curve" smooth="yes"/>
			<point x="56" y="230"/>
			<point x="105" y="308"/>
		</contour>
	</outline>
</glyph>
<glyph name="r" format="2">
  <advance width="318"/>
  <unicode hex="0072"/>
  <outline>
    <contour>
      <point x="37" y="0" type="curve" smooth="yes"/>
      <point x="62" y="0"/>
      <point x="65" y="14"/>
      <point x="70" y="32" type="curve" smooth="yes"/>
      <point x="143" y="322" type="line" smooth="yes"/>
      <point x="147" y="338"/>
      <point x="143" y="349"/>
      <point x="126" y="350" type="curve" smooth="yes"/>
      <point x="107" y="351"/>
      <point x="97" y="343"/>
      <point x="92" y="325" type="curve" smooth="yes"/>
      <point x="19" y="35" type="line" smooth="yes"/>
      <point x="15" y="18"/>
      <point x="15" y="0"/>
    </contour>
    <contour>
      <point x="86" y="96" type="line"/>
      <point x="105" y="168"/>
      <point x="219" y="308"/>
      <point x="264" y="308" type="curve" smooth="yes"/>
      <point x="275" y="308"/>
      <point x="283" y="299"/>
      <point x="287" y="280" type="curve" smooth="yes"/>
      <point x="290" y="265"/>
      <point x="302" y="260"/>
      <point x="319" y="264" type="curve" smooth="yes"/>
      <point x="331" y="267"/>
      <point x="341" y="277"/>
      <point x="338" y="290" type="curve" smooth="yes"/>
      <point x="327" y="332"/>
      <point x="306" y="354"/>
      <point x="276" y="354" type="curve" smooth="yes"/>
      <point x="224" y="354"/>
      <point x="157" y="290"/>
      <point x="110" y="209" type="curve"/>
    </contour>
  </outline>
</glyph>
<glyph name="s" format="2">
  <advance width="285"/>
  <unicode hex="0073"/>
  <outline>
    <contour>
      <point x="98" y="0" type="curve" smooth="yes"/>
      <point x="170" y="0"/>
      <point x="234" y="53"/>
      <point x="243" y="123" type="curve" smooth="yes"/>
      <point x="250.0" y="177"/>
      <point x="228" y="209"/>
      <point x="151" y="209.0" type="curve" smooth="yes"/>
      <point x="106.0" y="209.0"/>
      <point x="88" y="220"/>
      <point x="93" y="249" type="curve" smooth="yes"/>
      <point x="100" y="287"/>
      <point x="125" y="305"/>
      <point x="161" y="305" type="curve" smooth="yes"/>
      <point x="189" y="305"/>
      <point x="203" y="293"/>
      <point x="216" y="276" type="curve" smooth="yes"/>
      <point x="226" y="263"/>
      <point x="242" y="250"/>
      <point x="255" y="259" type="curve" smooth="yes"/>
      <point x="269" y="269"/>
      <point x="275" y="281"/>
      <point x="257" y="306" type="curve" smooth="yes"/>
      <point x="233" y="337"/>
      <point x="215" y="350"/>
      <point x="172" y="350" type="curve" smooth="yes"/>
      <point x="107" y="350"/>
      <point x="53" y="310"/>
      <point x="42" y="251" type="curve" smooth="yes"/>
      <point x="31" y="190"/>
      <point x="62" y="159"/>
      <point x="132" y="159" type="curve" smooth="yes"/>
      <point x="188" y="159"/>
      <point x="196.0" y="148.0"/>
      <point x="192" y="116" type="curve" smooth="yes"/>
      <point x="187" y="75"/>
      <point x="150" y="45"/>
      <point x="105" y="45" type="curve" smooth="yes"/>
      <point x="76" y="45"/>
      <point x="55" y="56"/>
      <point x="42" y="79" type="curve" smooth="yes"/>
      <point x="32" y="96"/>
      <point x="22" y="106"/>
      <point x="8" y="98" type="curve" smooth="yes"/>
      <point x="-7" y="89"/>
      <point x="-7" y="71"/>
      <point x="4" y="54" type="curve" smooth="yes"/>
      <point x="26" y="18"/>
      <point x="57" y="0"/>
    </contour>
  </outline>
</glyph>
<glyph name="t" format="2">
  <advance width="317"/>
  <unicode hex="0074"/>
  <outline>
    <contour>
      <point x="67" y="305" type="curve" smooth="yes"/>
      <point x="253" y="305" type="line" smooth="yes"/>
      <point x="273" y="305"/>
      <point x="279" y="316"/>
      <point x="279" y="328" type="curve" smooth="yes"/>
      <point x="279" y="340"/>
      <point x="273" y="350"/>
      <point x="253" y="350" type="curve" smooth="yes"/>
      <point x="67" y="350" type="line" smooth="yes"/>
      <point x="47" y="350"/>
      <point x="41" y="340"/>
      <point x="41" y="328" type="curve" smooth="yes"/>
      <point x="41" y="316"/>
      <point x="47" y="305"/>
    </contour>
    <contour>
      <point x="116" y="0" type="curve" smooth="yes"/>
      <point x="151" y="0"/>
      <point x="192" y="33"/>
      <point x="255" y="114" type="curve" smooth="yes"/>
      <point x="277" y="142"/>
      <point x="286" y="163"/>
      <point x="286" y="171" type="curve" smooth="yes"/>
      <point x="286" y="179"/>
      <point x="281" y="180"/>
      <point x="277" y="180" type="curve" smooth="yes"/>
      <point x="265" y="180"/>
      <point x="254" y="170"/>
      <point x="233" y="147" type="curve" smooth="yes"/>
      <point x="169" y="80"/>
      <point x="139" y="52"/>
      <point x="128" y="52" type="curve" smooth="yes"/>
      <point x="112" y="52"/>
      <point x="111" y="76"/>
      <point x="125" y="133" type="curve" smooth="yes"/>
      <point x="208" y="463" type="line" smooth="yes"/>
      <point x="212" y="479"/>
      <point x="208" y="491"/>
      <point x="191" y="491" type="curve" smooth="yes"/>
      <point x="172" y="491"/>
      <point x="162" y="484"/>
      <point x="157" y="466" type="curve" smooth="yes"/>
      <point x="76" y="144" type="line" smooth="yes"/>
      <point x="50" y="42"/>
      <point x="64" y="0"/>
    </contour>
  </outline>
</glyph>
<glyph name="u" format="2">
  <advance width="355"/>
  <unicode hex="0075"/>
  <outline>
    <contour>
      <point x="82" y="325" type="line" smooth="yes"/>
      <point x="87" y="343"/>
      <point x="97" y="351"/>
      <point x="116" y="350" type="curve" smooth="yes"/>
      <point x="133" y="349"/>
      <point x="137" y="338"/>
      <point x="133" y="322" type="curve" smooth="yes"/>
      <point x="92" y="161" type="line" smooth="yes"/>
      <point x="71" y="79"/>
      <point x="75" y="45"/>
      <point x="102" y="45" type="curve" smooth="yes"/>
      <point x="147" y="45"/>
      <point x="257" y="181"/>
      <point x="276" y="253" type="curve"/>
      <point x="252" y="140" type="line"/>
      <point x="205" y="59"/>
      <point x="142" y="-1"/>
      <point x="90" y="-1" type="curve" smooth="yes"/>
      <point x="26" y="-1"/>
      <point x="12" y="48"/>
      <point x="42" y="166" type="curve" smooth="yes"/>
    </contour>
    <contour>
      <point x="272" y="31" type="line" smooth="yes"/>
      <point x="267" y="13"/>
      <point x="264" y="-1"/>
      <point x="239" y="-1" type="curve" smooth="yes"/>
      <point x="217" y="-1"/>
      <point x="217" y="17"/>
      <point x="221" y="34" type="curve" smooth="yes"/>
      <point x="294" y="325" type="line" smooth="yes"/>
      <point x="299" y="343"/>
      <point x="309" y="351"/>
      <point x="328" y="350" type="curve" smooth="yes"/>
      <point x="345" y="349"/>
      <point x="349" y="338"/>
      <point x="345" y="322" type="curve" smooth="yes"/>
    </contour>
  </outline>
</glyph>
<glyph name="v" format="2">
  <advance width="306"/>
  <unicode hex="0076"/>
  <outline>
    <contour>
      <point x="112" y="0" type="curve" smooth="yes"/>
      <point x="128" y="0"/>
      <point x="133" y="4"/>
      <point x="139" y="16" type="curve" smooth="yes"/>
      <point x="305" y="318" type="line" smooth="yes"/>
      <point x="313" y="333"/>
      <point x="303" y="350"/>
      <point x="283" y="350" type="curve" smooth="yes"/>
      <point x="272" y="350"/>
      <point x="263" y="346"/>
      <point x="257" y="334" type="curve" smooth="yes"/>
      <point x="112" y="59" type="line"/>
      <point x="129" y="56" type="line"/>
      <point x="102" y="328" type="line" smooth="yes"/>
      <point x="100" y="345"/>
      <point x="89" y="350"/>
      <point x="78" y="350" type="curve" smooth="yes"/>
      <point x="57" y="350"/>
      <point x="50" y="333"/>
      <point x="52" y="320" type="curve" smooth="yes"/>
      <point x="87" y="19" type="line" smooth="yes"/>
      <point x="89" y="6"/>
      <point x="99" y="0"/>
    </contour>
  </outline>
</glyph>
<glyph name="w" format="2">
  <advance width="487"/>
  <unicode hex="0077"/>
  <outline>
    <contour>
      <point x="97" y="0" type="curve" smooth="yes"/>
      <point x="113" y="0"/>
      <point x="118" y="4"/>
      <point x="124" y="16" type="curve" smooth="yes"/>
      <point x="263" y="272" type="line"/>
      <point x="251" y="276" type="line"/>
      <point x="277" y="19" type="line" smooth="yes"/>
      <point x="278" y="6"/>
      <point x="289" y="0"/>
      <point x="302" y="0" type="curve" smooth="yes"/>
      <point x="318" y="0"/>
      <point x="323" y="4"/>
      <point x="329" y="16" type="curve" smooth="yes"/>
      <point x="495" y="318" type="line" smooth="yes"/>
      <point x="503" y="333"/>
      <point x="493" y="350"/>
      <point x="473" y="350" type="curve" smooth="yes"/>
      <point x="462" y="350"/>
      <point x="453" y="346"/>
      <point x="447" y="334" type="curve" smooth="yes"/>
      <point x="302" y="59" type="line"/>
      <point x="319" y="56" type="line"/>
      <point x="292" y="328" type="line" smooth="yes"/>
      <point x="290" y="345"/>
      <point x="279" y="350"/>
      <point x="268" y="350" type="curve" smooth="yes"/>
      <point x="256.0" y="350.0"/>
      <point x="248" y="345"/>
      <point x="242" y="334" type="curve" smooth="yes"/>
      <point x="97" y="59" type="line"/>
      <point x="114" y="56" type="line"/>
      <point x="87" y="328" type="line" smooth="yes"/>
      <point x="85" y="345"/>
      <point x="74" y="350"/>
      <point x="63" y="350" type="curve" smooth="yes"/>
      <point x="42" y="350"/>
      <point x="35" y="333"/>
      <point x="37" y="320" type="curve" smooth="yes"/>
      <point x="72" y="19" type="line" smooth="yes"/>
      <point x="74" y="6"/>
      <point x="84" y="0"/>
    </contour>
  </outline>
</glyph>
<glyph name="x" format="2">
	<advance width="360"/>
	<unicode hex="0078"/>
	<outline>
		<contour>
			<point x="339" y="308" type="line" smooth="yes"/>
			<point x="344" y="313"/>
			<point x="348" y="320"/>
			<point x="348" y="327" type="curve" smooth="yes"/>
			<point x="348" y="333"/>
			<point x="346" y="339"/>
			<point x="341" y="344" type="curve" smooth="yes"/>
			<point x="336" y="349"/>
			<point x="329" y="350"/>
			<point x="322" y="350" type="curve" smooth="yes"/>
			<point x="315" y="349"/>
			<point x="308" y="346"/>
			<point x="303" y="341" type="curve" smooth="yes"/>
			<point x="-36" y="44" type="line" smooth="yes"/>
			<point x="-44" y="37"/>
			<point x="-45" y="28"/>
			<point x="-44" y="21" type="curve" smooth="yes"/>
			<point x="-43" y="16"/>
			<point x="-40" y="11"/>
			<point x="-36" y="6" type="curve" smooth="yes"/>
			<point x="-32" y="2"/>
			<point x="-27" y="0"/>
			<point x="-20" y="0" type="curve" smooth="yes"/>
			<point x="-12" y="0"/>
			<point x="-4" y="5"/>
			<point x="1" y="10" type="curve" smooth="yes"/>
		</contour>
		<contour>
			<point x="77" y="338" type="line" smooth="yes"/>
			<point x="72" y="345"/>
			<point x="65" y="350"/>
			<point x="57" y="350" type="curve" smooth="yes"/>
			<point x="50" y="350"/>
			<point x="44" y="347"/>
			<point x="39" y="343" type="curve" smooth="yes"/>
			<point x="34" y="339"/>
			<point x="31" y="333"/>
			<point x="30" y="327" type="curve" smooth="yes"/>
			<point x="30" y="321"/>
			<point x="33" y="314"/>
			<point x="36" y="309" type="curve" smooth="yes"/>
			<point x="229" y="8" type="line" smooth="yes"/>
			<point x="233" y="2"/>
			<point x="239" y="0"/>
			<point x="244" y="0" type="curve" smooth="yes"/>
			<point x="251" y="0"/>
			<point x="259" y="1"/>
			<point x="264" y="6" type="curve" smooth="yes"/>
			<point x="269" y="11"/>
			<point x="273" y="18"/>
			<point x="273" y="25" type="curve" smooth="yes"/>
			<point x="273" y="31"/>
			<point x="270" y="37"/>
			<point x="267" y="42" type="curve" smooth="yes"/>
		</contour>
	</outline>
</glyph>
<glyph name="y" format="2">
  <advance width="355"/>
  <unicode hex="0079"/>
  <outline>
    <contour>
      <point x="90" y="-1" type="curve" smooth="yes"/>
      <point x="142" y="-1"/>
      <point x="205" y="59"/>
      <point x="252" y="140" type="curve"/>
      <point x="276" y="253" type="line"/>
      <point x="257" y="181"/>
      <point x="147" y="45"/>
      <point x="102" y="45" type="curve" smooth="yes"/>
      <point x="75" y="45"/>
      <point x="71" y="79"/>
      <point x="92" y="161" type="curve" smooth="yes"/>
      <point x="133" y="322" type="line" smooth="yes"/>
      <point x="137" y="338"/>
      <point x="133" y="349"/>
      <point x="116" y="350" type="curve" smooth="yes"/>
      <point x="97" y="351"/>
      <point x="87" y="343"/>
      <point x="82" y="325" type="curve" smooth="yes"/>
      <point x="42" y="166" type="line" smooth="yes"/>
      <point x="12" y="48"/>
      <point x="26" y="-1"/>
    </contour>
    <contour>
      <point x="103.0" y="-300.0" type="curve" smooth="yes"/>
      <point x="156.0" y="-300.0"/>
      <point x="197" y="-266"/>
      <point x="212" y="-207" type="curve" smooth="yes"/>
      <point x="345" y="322" type="line" smooth="yes"/>
      <point x="349" y="338"/>
      <point x="345" y="349"/>
      <point x="328" y="350" type="curve" smooth="yes"/>
      <point x="309" y="351"/>
      <point x="299" y="343"/>
      <point x="294" y="325" type="curve" smooth="yes"/>
      <point x="161" y="-203" type="line" smooth="yes"/>
      <point x="153" y="-234"/>
      <point x="134.0" y="-250.0"/>
      <point x="107.0" y="-250.0" type="curve" smooth="yes"/>
      <point x="79.0" y="-250.0"/>
      <point x="47" y="-232.0"/>
      <point x="23" y="-203.0" type="curve" smooth="yes"/>
      <point x="14" y="-191"/>
      <point x="0" y="-182"/>
      <point x="-13" y="-192" type="curve" smooth="yes"/>
      <point x="-25" y="-201"/>
      <point x="-30" y="-213"/>
      <point x="-17" y="-231" type="curve" smooth="yes"/>
      <point x="14" y="-274"/>
      <point x="60.0" y="-300.0"/>
    </contour>
  </outline>
</glyph>
<glyph name="z" format="2">
	<advance width="361"/>
	<unicode hex="007A"/>
	<outline>
		<contour>
			<point x="252" y="0" type="line" smooth="yes"/>
			<point x="272" y="0"/>
			<point x="278" y="13"/>
			<point x="278" y="25" type="curve" smooth="yes"/>
			<point x="278" y="37"/>
			<point x="272" y="50"/>
			<point x="252" y="50" type="curve" smooth="yes"/>
			<point x="26" y="50" type="line"/>
			<point x="-23" y="0" type="line"/>
		</contour>
		<contour>
			<point x="50" y="300" type="curve" smooth="yes"/>
			<point x="277" y="300" type="line"/>
			<point x="324" y="350" type="line"/>
			<point x="50" y="350" type="line" smooth="yes"/>
			<point x="30" y="350"/>
			<point x="24" y="337"/>
			<point x="24" y="325" type="curve" smooth="yes"/>
			<point x="24" y="313"/>
			<point x="30" y="300"/>
		</contour>
		<contour>
			<point x="-20" y="0" type="curve" smooth="yes"/>
			<point x="-12" y="0"/>
			<point x="-4" y="5"/>
			<point x="1" y="10" type="curve" smooth="yes"/>
			<point x="339" y="308" type="line" smooth="yes"/>
			<point x="356" y="325"/>
			<point x="348" y="350"/>
			<point x="322" y="350" type="curve" smooth="yes"/>
			<point x="315" y="349"/>
			<point x="308" y="346"/>
			<point x="303" y="341" type="curve" smooth="yes"/>
			<point x="-36" y="44" type="line" smooth="yes"/>
			<point x="-52" y="30"/>
			<point x="-44" y="0"/>
		</contour>
	</outline>
</glyph>
<glyph name="braceleft" format="2">
	<advance width="294"/>
	<unicode hex="007B"/>
	<outline>
		<contour>
			<point x="92" y="200" type="line"/>
			<point x="135" y="236"/>
			<point x="150" y="268"/>
			<point x="161" y="312" type="curve" smooth="yes"/>
			<point x="174" y="364"/>
			<point x="167" y="480"/>
			<point x="191" y="537" type="curve" smooth="yes"/>
			<point x="213" y="586"/>
			<point x="269" y="609"/>
			<point x="301" y="617" type="curve" smooth="yes"/>
			<point x="315" y="621"/>
			<point x="319" y="630"/>
			<point x="316" y="641" type="curve" smooth="yes"/>
			<point x="312" y="655"/>
			<point x="295" y="650"/>
			<point x="281" y="646" type="curve" smooth="yes"/>
			<point x="252" y="634"/>
			<point x="183" y="606"/>
			<point x="160" y="555" type="curve" smooth="yes"/>
			<point x="134" y="495"/>
			<point x="139" y="377"/>
			<point x="125" y="320" type="curve" smooth="yes"/>
			<point x="116" y="293"/>
			<point x="102" y="267"/>
			<point x="76" y="245" type="curve" smooth="yes"/>
			<point x="62" y="233"/>
			<point x="51" y="227"/>
			<point x="48" y="211" type="curve"/>
		</contour>
		<contour>
			<point x="48" y="214" type="line"/>
			<point x="47" y="196"/>
			<point x="53" y="187"/>
			<point x="60" y="170" type="curve" smooth="yes"/>
			<point x="74" y="136"/>
			<point x="77" y="107"/>
			<point x="72" y="78" type="curve" smooth="yes"/>
			<point x="61" y="22"/>
			<point x="9" y="-83"/>
			<point x="7" y="-149" type="curve" smooth="yes"/>
			<point x="6" y="-206"/>
			<point x="30" y="-258"/>
			<point x="53" y="-287" type="curve" smooth="yes"/>
			<point x="64" y="-299"/>
			<point x="75" y="-304"/>
			<point x="84" y="-295" type="curve" smooth="yes"/>
			<point x="93" y="-286"/>
			<point x="85" y="-277"/>
			<point x="76" y="-266" type="curve" smooth="yes"/>
			<point x="51" y="-237"/>
			<point x="41" y="-203"/>
			<point x="43" y="-149" type="curve" smooth="yes"/>
			<point x="45" y="-86"/>
			<point x="99" y="14"/>
			<point x="108" y="68" type="curve" smooth="yes"/>
			<point x="116" y="111"/>
			<point x="115" y="149"/>
			<point x="92" y="203" type="curve"/>
		</contour>
	</outline>
</glyph>
<glyph name="bar" format="2">
	<advance width="183"/>
	<unicode hex="007C"/>
	<outline>
		<contour>
			<point x="214" y="667" type="line" smooth="yes"/>
			<point x="219" y="689"/>
			<point x="209" y="699"/>
			<point x="196" y="700" type="curve" smooth="yes"/>
			<point x="184" y="701"/>
			<point x="169" y="692"/>
			<point x="165" y="674" type="curve" smooth="yes"/>
			<point x="-72" y="-272" type="line" smooth="yes"/>
			<point x="-76" y="-286"/>
			<point x="-68" y="-300"/>
			<point x="-50" y="-300" type="curve" smooth="yes"/>
			<point x="-29" y="-300"/>
			<point x="-24" y="-287"/>
			<point x="-21" y="-277" type="curve" smooth="yes"/>
		</contour>
	</outline>
</glyph>
<glyph name="braceright" format="2">
	<advance width="294"/>
	<unicode hex="007D"/>
	<outline>
		<contour>
			<point x="150" y="150" type="line"/>
			<point x="107" y="114"/>
			<point x="92" y="82"/>
			<point x="81" y="38" type="curve" smooth="yes"/>
			<point x="68" y="-14"/>
			<point x="75" y="-130"/>
			<point x="51" y="-187" type="curve" smooth="yes"/>
			<point x="29" y="-236"/>
			<point x="-27" y="-259"/>
			<point x="-59" y="-267" type="curve" smooth="yes"/>
			<point x="-73" y="-271"/>
			<point x="-77" y="-280"/>
			<point x="-74" y="-291" type="curve" smooth="yes"/>
			<point x="-70" y="-305"/>
			<point x="-53" y="-300"/>
			<point x="-39" y="-296" type="curve" smooth="yes"/>
			<point x="-10" y="-284"/>
			<point x="59" y="-256"/>
			<point x="82" y="-205" type="curve" smooth="yes"/>
			<point x="108" y="-145"/>
			<point x="103" y="-27"/>
			<point x="117" y="30" type="curve" smooth="yes"/>
			<point x="126" y="57"/>
			<point x="140" y="83"/>
			<point x="166" y="105" type="curve" smooth="yes"/>
			<point x="180" y="117"/>
			<point x="191" y="123"/>
			<point x="194" y="139" type="curve"/>
		</contour>
		<contour>
			<point x="194" y="136" type="line"/>
			<point x="195" y="154"/>
			<point x="189" y="163"/>
			<point x="182" y="180" type="curve" smooth="yes"/>
			<point x="168" y="214"/>
			<point x="165" y="243"/>
			<point x="170" y="272" type="curve" smooth="yes"/>
			<point x="181" y="328"/>
			<point x="233" y="433"/>
			<point x="235" y="499" type="curve" smooth="yes"/>
			<point x="236" y="556"/>
			<point x="212" y="608"/>
			<point x="189" y="637" type="curve" smooth="yes"/>
			<point x="178" y="649"/>
			<point x="167" y="654"/>
			<point x="158" y="645" type="curve" smooth="yes"/>
			<point x="149" y="636"/>
			<point x="157" y="627"/>
			<point x="166" y="616" type="curve" smooth="yes"/>
			<point x="191" y="587"/>
			<point x="201" y="553"/>
			<point x="199" y="499" type="curve" smooth="yes"/>
			<point x="197" y="436"/>
			<point x="143" y="336"/>
			<point x="134" y="282" type="curve" smooth="yes"/>
			<point x="126" y="239"/>
			<point x="127" y="201"/>
			<point x="150" y="147" type="curve"/>
		</contour>
	</outline>
</glyph>
<glyph name="exclamdown" format="2">
	<advance width="197"/>
	<unicode hex="00A1"/>
	<outline>
		<contour>
			<point x="10" y="24" type="line" smooth="yes"/>
			<point x="6" y="9"/>
			<point x="16" y="1"/>
			<point x="28" y="0" type="curve" smooth="yes"/>
			<point x="41" y="-1"/>
			<point x="57" y="5"/>
			<point x="60" y="17" type="curve" smooth="yes"/>
			<point x="167" y="447" type="line" smooth="yes"/>
			<point x="171" y="463"/>
			<point x="160" y="473"/>
			<point x="148" y="475" type="curve" smooth="yes"/>
			<point x="136" y="477"/>
			<point x="121" y="469"/>
			<point x="116" y="450" type="curve" smooth="yes"/>
		</contour>
		<contour>
			<point x="190" y="674" type="curve" smooth="yes"/>
			<point x="172" y="674"/>
			<point x="156" y="658"/>
			<point x="156" y="641" type="curve" smooth="yes"/>
			<point x="156" y="624"/>
			<point x="172" y="609"/>
			<point x="190" y="609" type="curve" smooth="yes"/>
			<point x="208" y="609"/>
			<point x="221" y="625"/>
			<point x="221" y="641" type="curve" smooth="yes"/>
			<point x="221" y="657"/>
			<point x="208" y="674"/>
		</contour>
	</outline>
</glyph>
<glyph name="brokenbar" format="2">
	<advance width="183"/>
	<unicode hex="00A6"/>
	<outline>
		<contour>
			<point x="81" y="134" type="line" smooth="yes"/>
			<point x="85" y="150"/>
			<point x="75" y="162"/>
			<point x="63" y="163" type="curve" smooth="yes"/>
			<point x="50" y="164"/>
			<point x="34" y="154"/>
			<point x="30" y="137" type="curve" smooth="yes"/>
			<point x="-72" y="-272" type="line" smooth="yes"/>
			<point x="-76" y="-286"/>
			<point x="-69" y="-300"/>
			<point x="-50" y="-300" type="curve" smooth="yes"/>
			<point x="-29" y="-300"/>
			<point x="-24" y="-287"/>
			<point x="-21" y="-277" type="curve" smooth="yes"/>
		</contour>
		<contour>
			<point x="214" y="667" type="line" smooth="yes"/>
			<point x="220" y="689"/>
			<point x="209" y="699"/>
			<point x="196" y="700" type="curve" smooth="yes"/>
			<point x="184" y="701"/>
			<point x="170" y="692"/>
			<point x="165" y="674" type="curve" smooth="yes"/>
			<point x="62" y="266" type="line" smooth="yes"/>
			<point x="58" y="250"/>
			<point x="68" y="238"/>
			<point x="81" y="238" type="curve" smooth="yes"/>
			<point x="94" y="237"/>
			<point x="109" y="246"/>
			<point x="113" y="263" type="curve" smooth="yes"/>
		</contour>
	</outline>
</glyph>
<glyph name="degree" format="2">
  <advance width="352"/>
  <unicode hex="00B0"/>
  <guideline x="323" y="516" angle="0" identifier="a8lJXTlcRe"/>
  <outline>
    <contour>
      <point x="263" y="650" type="curve" smooth="yes"/>
      <point x="188" y="650"/>
      <point x="132" y="591"/>
      <point x="132" y="511" type="curve" smooth="yes"/>
      <point x="132" y="431"/>
      <point x="188" y="372"/>
      <point x="262" y="372" type="curve" smooth="yes"/>
      <point x="336" y="372"/>
      <point x="392" y="431"/>
      <point x="392" y="511" type="curve" smooth="yes"/>
      <point x="392" y="591"/>
      <point x="337" y="650"/>
    </contour>
    <contour>
      <point x="263" y="605" type="curve" smooth="yes"/>
      <point x="307" y="605"/>
      <point x="340" y="565"/>
      <point x="340" y="511" type="curve" smooth="yes"/>
      <point x="340" y="457"/>
      <point x="307" y="417"/>
      <point x="262" y="417" type="curve" smooth="yes"/>
      <point x="215" y="417"/>
      <point x="181" y="457"/>
      <point x="182" y="511" type="curve" smooth="yes"/>
      <point x="182" y="565"/>
      <point x="217" y="605"/>
    </contour>
  </outline>
</glyph>
<glyph name="plusminus" format="2">
	<advance width="312"/>
	<unicode hex="00B1"/>
	<outline>
		<contour>
			<point x="188" y="340" type="line" smooth="yes"/>
			<point x="192" y="359"/>
			<point x="181" y="371"/>
			<point x="169" y="372" type="curve" smooth="yes"/>
			<point x="159" y="372"/>
			<point x="148" y="366"/>
			<point x="144" y="350" type="curve" smooth="yes"/>
			<point x="105" y="197" type="line" smooth="yes"/>
			<point x="101" y="178"/>
			<point x="112" y="166"/>
			<point x="124" y="165" type="curve" smooth="yes"/>
			<point x="134" y="165"/>
			<point x="145" y="171"/>
			<point x="149" y="187" type="curve" smooth="yes"/>
		</contour>
		<contour>
			<point x="203" y="97" type="line" smooth="yes"/>
			<point x="221" y="97"/>
			<point x="230" y="108"/>
			<point x="230" y="120" type="curve" smooth="yes"/>
			<point x="230" y="131"/>
			<point x="221" y="142"/>
			<point x="203" y="142" type="curve" smooth="yes"/>
			<point x="6" y="142" type="line" smooth="yes"/>
			<point x="-12" y="142"/>
			<point x="-21" y="131"/>
			<point x="-21" y="120" type="curve" smooth="yes"/>
			<point x="-21" y="109"/>
			<point x="-12" y="97"/>
			<point x="6" y="97" type="curve" smooth="yes"/>
		</contour>
		<contour>
			<point x="240" y="248" type="line" smooth="yes"/>
			<point x="258" y="248"/>
			<point x="267" y="260"/>
			<point x="267" y="271" type="curve" smooth="yes"/>
			<point x="267" y="282"/>
			<point x="258" y="293"/>
			<point x="240" y="293" type="curve" smooth="yes"/>
			<point x="43" y="293" type="line" smooth="yes"/>
			<point x="25" y="293"/>
			<point x="16" y="282"/>
			<point x="16" y="271" type="curve" smooth="yes"/>
			<point x="16" y="260"/>
			<point x="25" y="248"/>
			<point x="43" y="248" type="curve" smooth="yes"/>
		</contour>
	</outline>
</glyph>
<glyph name="periodcentered" format="2">
  <advance width="185"/>
  <unicode hex="00B7"/>
  <outline>
    <contour>
      <point x="99" y="169" type="curve" smooth="yes"/>
      <point x="119" y="169"/>
      <point x="137" y="187"/>
      <point x="137" y="208" type="curve" smooth="yes"/>
      <point x="137" y="228"/>
      <point x="119" y="245"/>
      <point x="99" y="245" type="curve" smooth="yes"/>
      <point x="78" y="245"/>
      <point x="62" y="228"/>
      <point x="62" y="208" type="curve" smooth="yes"/>
      <point x="62" y="188"/>
      <point x="78" y="169"/>
    </contour>
  </outline>
</glyph>
<glyph name="questiondown" format="2">
  <advance width="427"/>
  <unicode hex="00BF"/>
  <outline>
    <contour>
      <point x="339" y="650" type="curve" smooth="yes"/>
      <point x="319" y="650"/>
      <point x="301" y="632"/>
      <point x="301" y="611" type="curve" smooth="yes"/>
      <point x="301" y="591"/>
      <point x="319" y="574"/>
      <point x="339" y="574" type="curve" smooth="yes"/>
      <point x="360" y="574"/>
      <point x="376" y="591"/>
      <point x="376" y="611" type="curve" smooth="yes"/>
      <point x="376" y="631"/>
      <point x="360" y="650"/>
    </contour>
    <contour>
      <point x="380" y="161" type="curve" smooth="yes"/>
      <point x="385" y="182"/>
      <point x="375" y="193"/>
      <point x="359" y="193" type="curve" smooth="yes"/>
      <point x="348" y="193"/>
      <point x="335" y="187"/>
      <point x="330" y="168" type="curve" smooth="yes"/>
      <point x="311" y="92"/>
      <point x="260" y="45"/>
      <point x="190" y="45" type="curve" smooth="yes"/>
      <point x="119" y="45"/>
      <point x="80" y="103"/>
      <point x="99" y="181" type="curve" smooth="yes"/>
      <point x="120" y="268"/>
      <point x="184" y="328"/>
      <point x="265" y="328" type="curve" smooth="yes"/>
      <point x="296" y="328"/>
      <point x="308" y="334"/>
      <point x="314" y="357" type="curve" smooth="yes"/>
      <point x="336" y="443" type="line" smooth="yes"/>
      <point x="341" y="464"/>
      <point x="331" y="475"/>
      <point x="315" y="475" type="curve" smooth="yes"/>
      <point x="304" y="475"/>
      <point x="291" y="469"/>
      <point x="286" y="450" type="curve" smooth="yes"/>
      <point x="266" y="370" type="line"/>
      <point x="161" y="370"/>
      <point x="75" y="295"/>
      <point x="48" y="185" type="curve" smooth="yes"/>
      <point x="22" y="79"/>
      <point x="79" y="0"/>
      <point x="182" y="0" type="curve" smooth="yes"/>
      <point x="278" y="0"/>
      <point x="354" y="61"/>
    </contour>
  </outline>
</glyph>
<glyph name="multiply" format="2">
  <advance width="382"/>
  <unicode hex="00D7"/>
  <outline>
    <contour>
      <point x="81" y="93" type="curve" smooth="yes"/>
      <point x="347" y="327" type="line" smooth="yes"/>
      <point x="361" y="339"/>
      <point x="361" y="352"/>
      <point x="352" y="360" type="curve" smooth="yes"/>
      <point x="343" y="369"/>
      <point x="329" y="370"/>
      <point x="315" y="358" type="curve" smooth="yes"/>
      <point x="47" y="123" type="line" smooth="yes"/>
      <point x="35" y="113"/>
      <point x="35" y="100"/>
      <point x="43" y="91" type="curve" smooth="yes"/>
      <point x="52" y="82"/>
      <point x="65" y="79"/>
    </contour>
    <contour>
      <point x="267" y="93" type="line" smooth="yes"/>
      <point x="278" y="79"/>
      <point x="291" y="80"/>
      <point x="300" y="87" type="curve" smooth="yes"/>
      <point x="311" y="95"/>
      <point x="314" y="107"/>
      <point x="304" y="121" type="curve" smooth="yes"/>
      <point x="132" y="353" type="line" smooth="yes"/>
      <point x="121" y="368"/>
      <point x="107" y="370"/>
      <point x="98" y="363" type="curve" smooth="yes"/>
      <point x="88" y="355"/>
      <point x="85" y="340"/>
      <point x="94" y="327" type="curve" smooth="yes"/>
    </contour>
  </outline>
</glyph>
<glyph name="divide" format="2">
	<advance width="341"/>
	<unicode hex="00F7"/>
	<outline>
		<contour>
			<point x="109" y="57" type="curve" smooth="yes"/>
			<point x="127" y="57"/>
			<point x="143" y="73"/>
			<point x="143" y="90" type="curve" smooth="yes"/>
			<point x="143" y="108"/>
			<point x="126" y="122"/>
			<point x="109" y="122" type="curve" smooth="yes"/>
			<point x="90" y="122"/>
			<point x="78" y="106"/>
			<point x="78" y="90" type="curve" smooth="yes"/>
			<point x="78" y="73"/>
			<point x="91" y="57"/>
		</contour>
		<contour>
			<point x="164" y="273" type="curve" smooth="yes"/>
			<point x="181" y="273"/>
			<point x="197" y="289"/>
			<point x="197" y="306" type="curve" smooth="yes"/>
			<point x="197" y="323"/>
			<point x="181" y="338"/>
			<point x="164" y="338" type="curve" smooth="yes"/>
			<point x="146" y="338"/>
			<point x="132" y="322"/>
			<point x="132" y="306" type="curve" smooth="yes"/>
			<point x="132" y="290"/>
			<point x="146" y="273"/>
		</contour>
		<contour>
			<point x="251" y="175" type="line" smooth="yes"/>
			<point x="286" y="175"/>
			<point x="288" y="220"/>
			<point x="251" y="220" type="curve" smooth="yes"/>
			<point x="24" y="220" type="line" smooth="yes"/>
			<point x="-13" y="220"/>
			<point x="-11" y="175"/>
			<point x="24" y="175" type="curve" smooth="yes"/>
		</contour>
	</outline>
</glyph>
<glyph name="tilde" format="2">
	<advance width="341"/>
	<unicode hex="02DC"/>
	<outline>
		<contour>
			<point x="180" y="158" type="curve" smooth="yes"/>
			<point x="212" y="158"/>
			<point x="232" y="168"/>
			<point x="253" y="177" type="curve" smooth="yes"/>
			<point x="271" y="185"/>
			<point x="279" y="191"/>
			<point x="279" y="202" type="curve" smooth="yes"/>
			<point x="279" y="213"/>
			<point x="267" y="233"/>
			<point x="250" y="225" type="curve" smooth="yes"/>
			<point x="231" y="216"/>
			<point x="218" y="203"/>
			<point x="188" y="203" type="curve" smooth="yes"/>
			<point x="160" y="203"/>
			<point x="117" y="241"/>
			<point x="86" y="241" type="curve" smooth="yes"/>
			<point x="60" y="241"/>
			<point x="43" y="232"/>
			<point x="25" y="225" type="curve" smooth="yes"/>
			<point x="7" y="218"/>
			<point x="-2" y="213"/>
			<point x="-2" y="202" type="curve" smooth="yes"/>
			<point x="-2" y="190"/>
			<point x="8" y="169"/>
			<point x="26" y="177" type="curve" smooth="yes"/>
			<point x="41" y="184"/>
			<point x="55" y="196"/>
			<point x="78" y="196" type="curve" smooth="yes"/>
			<point x="109" y="196"/>
			<point x="152" y="158"/>
		</contour>
	</outline>
</glyph>
<glyph name="endash" format="2">
	<advance width="342"/>
	<unicode hex="2013"/>
	<outline>
		<contour>
			<point x="252" y="175" type="line" smooth="yes"/>
			<point x="270" y="175"/>
			<point x="279" y="187"/>
			<point x="279" y="199" type="curve" smooth="yes"/>
			<point x="279" y="210"/>
			<point x="270" y="220"/>
			<point x="252" y="220" type="curve" smooth="yes"/>
			<point x="25" y="220" type="line" smooth="yes"/>
			<point x="7" y="220"/>
			<point x="-2" y="210"/>
			<point x="-2" y="199" type="curve" smooth="yes"/>
			<point x="-2" y="187"/>
			<point x="7" y="175"/>
			<point x="25" y="175" type="curve" smooth="yes"/>
		</contour>
	</outline>
</glyph>
<glyph name="emdash" format="2">
	<advance width="444"/>
	<unicode hex="2014"/>
	<outline>
		<contour>
			<point x="350" y="175" type="line" smooth="yes"/>
			<point x="370" y="175"/>
			<point x="381" y="187"/>
			<point x="381" y="199" type="curve" smooth="yes"/>
			<point x="381" y="209"/>
			<point x="371" y="220"/>
			<point x="350" y="220" type="curve" smooth="yes"/>
			<point x="27" y="220" type="line" smooth="yes"/>
			<point x="7" y="220"/>
			<point x="-3" y="209"/>
			<point x="-3" y="199" type="curve" smooth="yes"/>
			<point x="-3" y="187"/>
			<point x="8" y="175"/>
			<point x="27" y="175" type="curve" smooth="yes"/>
		</contour>
	</outline>
</glyph>
<glyph name="bullet" format="2">
  <advance width="330"/>
  <unicode hex="2022"/>
  <outline>
    <contour>
      <point x="209" y="278" type="curve" smooth="yes"/>
      <point x="249" y="278"/>
      <point x="286" y="314"/>
      <point x="286" y="355" type="curve" smooth="yes"/>
      <point x="286" y="396"/>
      <point x="250" y="430"/>
      <point x="210" y="430" type="curve" smooth="yes"/>
      <point x="168" y="430"/>
      <point x="136" y="395"/>
      <point x="136" y="355" type="curve" smooth="yes"/>
      <point x="136" y="316"/>
      <point x="167" y="278"/>
    </contour>
  </outline>
</glyph>
<glyph name="ellipsis" format="2">
	<advance width="357"/>
	<unicode hex="2026"/>
	<outline>
		<contour>
			<point x="208" y="-30" type="curve" smooth="yes"/>
			<point x="228" y="-30"/>
			<point x="246" y="-12"/>
			<point x="246" y="9" type="curve" smooth="yes"/>
			<point x="246" y="29"/>
			<point x="228" y="46"/>
			<point x="208" y="46" type="curve" smooth="yes"/>
			<point x="187" y="46"/>
			<point x="171" y="29"/>
			<point x="171" y="9" type="curve" smooth="yes"/>
			<point x="171" y="-11"/>
			<point x="187" y="-30"/>
		</contour>
		<contour>
			<point x="-12" y="-30" type="curve" smooth="yes"/>
			<point x="8" y="-30"/>
			<point x="26" y="-12"/>
			<point x="26" y="9" type="curve" smooth="yes"/>
			<point x="26" y="29"/>
			<point x="8" y="46"/>
			<point x="-12" y="46" type="curve" smooth="yes"/>
			<point x="-33" y="46"/>
			<point x="-49" y="29"/>
			<point x="-49" y="9" type="curve" smooth="yes"/>
			<point x="-49" y="-11"/>
			<point x="-33" y="-30"/>
		</contour>
		<contour>
			<point x="98" y="-30" type="curve" smooth="yes"/>
			<point x="118" y="-30"/>
			<point x="136" y="-12"/>
			<point x="136" y="9" type="curve" smooth="yes"/>
			<point x="136" y="29"/>
			<point x="118" y="46"/>
			<point x="98" y="46" type="curve" smooth="yes"/>
			<point x="77" y="46"/>
			<point x="61" y="29"/>
			<point x="61" y="9" type="curve" smooth="yes"/>
			<point x="61" y="-11"/>
			<point x="77" y="-30"/>
		</contour>
	</outline>
</glyph>
<glyph name="minus" format="2">
  <advance width="382"/>
  <unicode hex="2212"/>
  <outline>
    <contour>
      <point x="311" y="205" type="line" smooth="yes"/>
      <point x="329" y="205"/>
      <point x="338" y="217"/>
      <point x="338" y="228" type="curve" smooth="yes"/>
      <point x="338" y="239"/>
      <point x="329" y="250"/>
      <point x="311" y="250" type="curve" smooth="yes"/>
      <point x="84" y="250" type="line" smooth="yes"/>
      <point x="66" y="250"/>
      <point x="57" y="239"/>
      <point x="57" y="228" type="curve" smooth="yes"/>
      <point x="57" y="216"/>
      <point x="66" y="205"/>
      <point x="84" y="205" type="curve" smooth="yes"/>
    </contour>
  </outline>
</glyph>
<glyph name="infinity" format="2">
	<advance width="630"/>
	<unicode hex="221E"/>
	<outline>
		<contour>
			<point x="264" y="213" type="line"/>
			<point x="275" y="196" type="line" smooth="yes"/>
			<point x="308" y="146"/>
			<point x="347" y="90"/>
			<point x="405" y="80" type="curve" smooth="yes"/>
			<point x="469" y="69"/>
			<point x="558" y="109"/>
			<point x="583" y="211" type="curve" smooth="yes"/>
			<point x="607" y="307"/>
			<point x="528" y="349"/>
			<point x="471" y="359" type="curve" smooth="yes"/>
			<point x="419" y="368"/>
			<point x="352" y="356"/>
			<point x="271" y="279" type="curve"/>
		</contour>
		<contour>
			<point x="274" y="280" type="line"/>
			<point x="215" y="214"/>
			<point x="116" y="121"/>
			<point x="80" y="127" type="curve" smooth="yes"/>
			<point x="48" y="132"/>
			<point x="47" y="191"/>
			<point x="56" y="227" type="curve" smooth="yes"/>
			<point x="66" y="267"/>
			<point x="87" y="322"/>
			<point x="143" y="312" type="curve" smooth="yes"/>
			<point x="184" y="305"/>
			<point x="222" y="267"/>
			<point x="240" y="241" type="curve"/>
			<point x="273" y="279" type="line"/>
			<point x="251" y="309"/>
			<point x="212" y="352"/>
			<point x="157" y="361" type="curve" smooth="yes"/>
			<point x="71" y="377"/>
			<point x="23" y="298"/>
			<point x="5" y="226" type="curve" smooth="yes"/>
			<point x="-9" y="168"/>
			<point x="5" y="93"/>
			<point x="72" y="81" type="curve" smooth="yes"/>
			<point x="140" y="69"/>
			<point x="203" y="140"/>
			<point x="272" y="210" type="curve"/>
		</contour>
		<contour>
			<point x="305" y="241" type="line"/>
			<point x="372" y="307"/>
			<point x="417" y="319"/>
			<point x="456" y="312" type="curve" smooth="yes"/>
			<point x="504" y="303"/>
			<point x="546" y="263"/>
			<point x="534" y="214" type="curve" smooth="yes"/>
			<point x="520" y="158"/>
			<point x="457" y="123"/>
			<point x="414" y="130" type="curve" smooth="yes"/>
			<point x="373" y="137"/>
			<point x="344" y="187"/>
			<point x="315" y="227" type="curve" smooth="yes"/>
		</contour>
	</outline>
</glyph>
<glyph name="approxequal" format="2">
	<advance width="341"/>
	<unicode hex="2248"/>
	<outline>
		<contour>
			<point x="197" y="227" type="curve" smooth="yes"/>
			<point x="229" y="227"/>
			<point x="249" y="237"/>
			<point x="270" y="246" type="curve" smooth="yes"/>
			<point x="288" y="254"/>
			<point x="296" y="260"/>
			<point x="296" y="271" type="curve" smooth="yes"/>
			<point x="296" y="282"/>
			<point x="284" y="302"/>
			<point x="267" y="294" type="curve" smooth="yes"/>
			<point x="248" y="285"/>
			<point x="235" y="272"/>
			<point x="205" y="272" type="curve" smooth="yes"/>
			<point x="177" y="272"/>
			<point x="134" y="310"/>
			<point x="103" y="310" type="curve" smooth="yes"/>
			<point x="77" y="310"/>
			<point x="60" y="301"/>
			<point x="42" y="294" type="curve" smooth="yes"/>
			<point x="24" y="287"/>
			<point x="15" y="282"/>
			<point x="15" y="271" type="curve" smooth="yes"/>
			<point x="15" y="259"/>
			<point x="25" y="238"/>
			<point x="43" y="246" type="curve" smooth="yes"/>
			<point x="58" y="253"/>
			<point x="72" y="265"/>
			<point x="95" y="265" type="curve" smooth="yes"/>
			<point x="126" y="265"/>
			<point x="169" y="227"/>
		</contour>
		<contour>
			<point x="160" y="76" type="curve" smooth="yes"/>
			<point x="192" y="76"/>
			<point x="212" y="86"/>
			<point x="233" y="95" type="curve" smooth="yes"/>
			<point x="251" y="103"/>
			<point x="259" y="109"/>
			<point x="259" y="120" type="curve" smooth="yes"/>
			<point x="259" y="131"/>
			<point x="247" y="151"/>
			<point x="230" y="143" type="curve" smooth="yes"/>
			<point x="211" y="134"/>
			<point x="198" y="121"/>
			<point x="168" y="121" type="curve" smooth="yes"/>
			<point x="140" y="121"/>
			<point x="97" y="159"/>
			<point x="66" y="159" type="curve" smooth="yes"/>
			<point x="40" y="159"/>
			<point x="23" y="150"/>
			<point x="5" y="143" type="curve" smooth="yes"/>
			<point x="-13" y="136"/>
			<point x="-22" y="131"/>
			<point x="-22" y="120" type="curve" smooth="yes"/>
			<point x="-22" y="108"/>
			<point x="-12" y="87"/>
			<point x="6" y="95" type="curve" smooth="yes"/>
			<point x="21" y="102"/>
			<point x="35" y="114"/>
			<point x="58" y="114" type="curve" smooth="yes"/>
			<point x="89" y="114"/>
			<point x="132" y="76"/>
		</contour>
	</outline>
</glyph>
<glyph name="notequal" format="2">
	<advance width="342"/>
	<unicode hex="2260"/>
	<outline>
		<contour>
			<point x="218" y="306" type="line" smooth="yes"/>
			<point x="232" y="330"/>
			<point x="221" y="344"/>
			<point x="207" y="345" type="curve" smooth="yes"/>
			<point x="197" y="345"/>
			<point x="187" y="341"/>
			<point x="180" y="330" type="curve" smooth="yes"/>
			<point x="41" y="78" type="line" smooth="yes"/>
			<point x="32" y="60"/>
			<point x="39" y="48"/>
			<point x="50" y="43" type="curve" smooth="yes"/>
			<point x="59" y="39"/>
			<point x="73" y="41"/>
			<point x="79" y="54" type="curve" smooth="yes"/>
		</contour>
		<contour>
			<point x="232" y="97" type="line" smooth="yes"/>
			<point x="250" y="97"/>
			<point x="259" y="108"/>
			<point x="259" y="120" type="curve" smooth="yes"/>
			<point x="259" y="131"/>
			<point x="250" y="142"/>
			<point x="232" y="142" type="curve" smooth="yes"/>
			<point x="5" y="142" type="line" smooth="yes"/>
			<point x="-13" y="142"/>
			<point x="-22" y="131"/>
			<point x="-22" y="120" type="curve" smooth="yes"/>
			<point x="-22" y="109"/>
			<point x="-13" y="97"/>
			<point x="5" y="97" type="curve" smooth="yes"/>
		</contour>
		<contour>
			<point x="270" y="248" type="line" smooth="yes"/>
			<point x="288" y="248"/>
			<point x="297" y="260"/>
			<point x="297" y="271" type="curve" smooth="yes"/>
			<point x="297" y="282"/>
			<point x="288" y="293"/>
			<point x="270" y="293" type="curve" smooth="yes"/>
			<point x="43" y="293" type="line" smooth="yes"/>
			<point x="25" y="293"/>
			<point x="16" y="282"/>
			<point x="16" y="271" type="curve" smooth="yes"/>
			<point x="16" y="260"/>
			<point x="25" y="248"/>
			<point x="43" y="248" type="curve" smooth="yes"/>
		</contour>
	</outline>
</glyph>
<glyph name="lessequal" format="2">
	<advance width="327"/>
	<unicode hex="2264"/>
	<outline>
		<contour>
			<point x="270" y="324" type="line" smooth="yes"/>
			<point x="286" y="332"/>
			<point x="288" y="348"/>
			<point x="280" y="359" type="curve" smooth="yes"/>
			<point x="272" y="369"/>
			<point x="260" y="369"/>
			<point x="243" y="360" type="curve" smooth="yes"/>
			<point x="17" y="243" type="line" smooth="yes"/>
			<point x="2" y="235"/>
			<point x="2" y="223"/>
			<point x="10" y="212" type="curve" smooth="yes"/>
			<point x="17" y="202"/>
			<point x="28" y="199"/>
			<point x="43" y="207" type="curve" smooth="yes"/>
		</contour>
		<contour>
			<point x="218" y="97" type="line" smooth="yes"/>
			<point x="236" y="97"/>
			<point x="245" y="109"/>
			<point x="245" y="120" type="curve" smooth="yes"/>
			<point x="245" y="131"/>
			<point x="236" y="142"/>
			<point x="218" y="142" type="curve" smooth="yes"/>
			<point x="14" y="142" type="line" smooth="yes"/>
			<point x="-4" y="142"/>
			<point x="-13" y="131"/>
			<point x="-13" y="120" type="curve" smooth="yes"/>
			<point x="-13" y="108"/>
			<point x="-4" y="97"/>
			<point x="14" y="97" type="curve" smooth="yes"/>
		</contour>
		<contour>
			<point x="24" y="202" type="line"/>
			<point x="237" y="202" type="line" smooth="yes"/>
			<point x="253" y="202"/>
			<point x="263" y="213"/>
			<point x="263" y="225" type="curve" smooth="yes"/>
			<point x="264" y="236"/>
			<point x="254" y="248"/>
			<point x="231" y="248" type="curve" smooth="yes"/>
			<point x="25" y="248" type="line"/>
		</contour>
	</outline>
</glyph>
<glyph name="greaterequal" format="2">
	<advance width="327"/>
	<unicode hex="2265"/>
	<outline>
		<contour>
			<point x="233" y="207" type="line" smooth="yes"/>
			<point x="248" y="198"/>
			<point x="259" y="202"/>
			<point x="266" y="212" type="curve" smooth="yes"/>
			<point x="274" y="223"/>
			<point x="271" y="235"/>
			<point x="259" y="243" type="curve" smooth="yes"/>
			<point x="76" y="360" type="line" smooth="yes"/>
			<point x="60" y="370"/>
			<point x="47" y="369"/>
			<point x="39" y="359" type="curve" smooth="yes"/>
			<point x="31" y="348"/>
			<point x="34" y="334"/>
			<point x="49" y="324" type="curve" smooth="yes"/>
		</contour>
		<contour>
			<point x="218" y="97" type="line" smooth="yes"/>
			<point x="236" y="97"/>
			<point x="245" y="108"/>
			<point x="245" y="120" type="curve" smooth="yes"/>
			<point x="245" y="131"/>
			<point x="236" y="142"/>
			<point x="218" y="142" type="curve" smooth="yes"/>
			<point x="5" y="142" type="line" smooth="yes"/>
			<point x="-13" y="142"/>
			<point x="-22" y="131"/>
			<point x="-22" y="120" type="curve" smooth="yes"/>
			<point x="-22" y="109"/>
			<point x="-13" y="97"/>
			<point x="5" y="97" type="curve" smooth="yes"/>
		</contour>
		<contour>
			<point x="246" y="202" type="line"/>
			<point x="179" y="248" type="line"/>
			<point x="36" y="248" type="line" smooth="yes"/>
			<point x="14" y="248"/>
			<point x="6" y="239"/>
			<point x="4" y="227" type="curve" smooth="yes"/>
			<point x="3" y="216"/>
			<point x="8" y="202"/>
			<point x="30" y="202" type="curve" smooth="yes"/>
		</contour>
	</outline>
</glyph>
<glyph name=".notdef" format="2">
	<advance width="575"/>
	<outline>
		<contour>
			<point x="422" y="0" type="line" smooth="yes"/>
			<point x="433" y="0"/>
			<point x="443" y="12"/>
			<point x="447" y="27" type="curve" smooth="yes"/>
			<point x="608" y="673" type="line" smooth="yes"/>
			<point x="612" y="689"/>
			<point x="604" y="700"/>
			<point x="590" y="700" type="curve" smooth="yes"/>
			<point x="194" y="700" type="line" smooth="yes"/>
			<point x="177" y="700"/>
			<point x="167" y="689"/>
			<point x="163" y="673" type="curve" smooth="yes"/>
			<point x="2" y="27" type="line" smooth="yes"/>
			<point x="-2" y="12"/>
			<point x="7" y="0"/>
			<point x="26" y="0" type="curve" smooth="yes"/>
		</contour>
		<contour>
			<point x="56" y="45" type="line"/>
			<point x="211" y="655" type="line"/>
			<point x="554" y="655" type="line"/>
			<point x="400" y="45" type="line"/>
		</contour>
	</outline>
</glyph>
